<?xml version="1.0" encoding="UTF-8" standalone="no"?><!DOCTYPE svg PUBLIC "-//W3C//DTD SVG 1.1//EN" "http://www.w3.org/Graphics/SVG/1.1/DTD/svg11.dtd"><svg width="100%" height="100%" viewBox="0 0 187 208" version="1.1" xmlns="http://www.w3.org/2000/svg" xmlns:xlink="http://www.w3.org/1999/xlink" xml:space="preserve" xmlns:serif="http://www.serif.com/" style="fill-rule:evenodd;clip-rule:evenodd;stroke-linejoin:round;stroke-miterlimit:2;"><path d="M85.978,164.894c-14.302,0 -23.399,-8.422 -23.399,-19.104c0,-45.713 123.836,-54.864 123.836,-103.41c0,-29.615 -35.34,-42.38 -80.452,-42.38c-27.441,0 -58.469,4.93 -87.285,13.752l0,57.913c42.466,-30.025 89.648,-42.877 120.039,-42.877c19.11,0 32.077,5.176 32.077,14.45c0,38.208 -170.792,32.154 -170.792,114.715c0,31.646 22.416,49.777 53.953,49.777c47.703,0 83.784,-45.001 110.778,-99.856l5.469,1.907c-14.217,33.522 -43.636,70.278 -49.366,93.906l61.414,0l0,-122.238l-14.184,0c-20.588,43.429 -50.759,83.448 -82.087,83.448" style="fill:#fff;fill-rule:nonzero;"/></svg>