<svg width="24" height="25" viewBox="0 0 24 25" fill="none" xmlns="http://www.w3.org/2000/svg">
<g clip-path="url(#clip0_34_214)">
<path d="M12 0C5.383 0 0 5.60729 0 12.5C0 19.3927 5.383 25 12 25C18.617 25 24 19.3927 24 12.5C24 5.60729 18.617 0 12 0ZM12 23.9583C5.935 23.9583 1 18.8177 1 12.5C1 6.18229 5.935 1.04167 12 1.04167C18.065 1.04167 23 6.18229 23 12.5C23 18.8177 18.065 23.9583 12 23.9583Z" fill="white"/>
<path d="M16.649 13.6167L13.767 16.5656C13.58 16.7604 13.294 17.0323 12.993 17.3104C12.845 17.4469 12.677 17.5437 12.5 17.6083V6.77083C12.5 6.48333 12.276 6.25 12 6.25C11.724 6.25 11.5 6.48333 11.5 6.77083V17.6083C11.323 17.5427 11.155 17.4469 11.007 17.3104C10.706 17.0333 10.42 16.7615 10.23 16.5635L7.35103 13.6177C7.15303 13.4156 6.83703 13.4188 6.64303 13.624C6.44903 13.8292 6.45303 14.1594 6.64903 14.3604L9.52503 17.3031C9.72303 17.5094 10.025 17.7979 10.343 18.0906C10.815 18.526 11.407 18.7448 11.999 18.7448C12.591 18.7448 13.183 18.5271 13.655 18.0917C13.973 17.7979 14.276 17.5094 14.47 17.3073L17.349 14.3615C17.546 14.1604 17.549 13.8302 17.355 13.625C17.161 13.4198 16.845 13.4167 16.647 13.6188L16.649 13.6167Z" fill="white"/>
</g>
<defs>
<clipPath id="clip0_34_214">
<rect width="24" height="25" fill="white"/>
</clipPath>
</defs>
</svg>
