<svg width="25" height="25" viewBox="0 0 25 25" fill="none" xmlns="http://www.w3.org/2000/svg">
<g clip-path="url(#clip0_20_50)">
<path d="M24.0052 11.0458C23.3906 10.5323 22.5948 10.3198 21.8177 10.4604L15.0885 11.6833C13.9708 11.8865 13.0427 12.5677 12.5 13.4917C11.9573 12.5667 11.0281 11.8865 9.91042 11.6833L3.18125 10.4594C2.39167 10.3146 1.58542 10.5271 0.969792 11.0427C0.353125 11.5573 0 12.3125 0 13.1146V22.7344L12.5 25.0073L25 22.7344V13.1635C25 12.3458 24.6375 11.574 24.0052 11.0458ZM11.9792 23.8542L1.04167 21.8656V13.1156C1.04167 12.6229 1.25833 12.1594 1.6375 11.8438C2.01562 11.5281 2.51042 11.3969 2.99583 11.4854L9.725 12.7094C11.0312 12.9469 11.9802 14.0823 11.9802 15.4104V23.8542H11.9792ZM23.9583 21.8656L13.0208 23.8542V15.4104C13.0208 14.0823 13.9687 12.9458 15.276 12.7083L22.0052 11.4844C22.4719 11.4 22.9604 11.5302 23.3375 11.8458C23.7323 12.175 23.9583 12.6552 23.9583 13.1635V21.8656ZM12.5 10.4167C15.3719 10.4167 17.7083 8.08021 17.7083 5.20833C17.7083 2.33646 15.3719 0 12.5 0C9.62812 0 7.29167 2.33646 7.29167 5.20833C7.29167 8.08021 9.62812 10.4167 12.5 10.4167ZM12.5 1.04167C14.7979 1.04167 16.6667 2.91042 16.6667 5.20833C16.6667 7.50625 14.7979 9.375 12.5 9.375C10.2021 9.375 8.33333 7.50625 8.33333 5.20833C8.33333 2.91042 10.2021 1.04167 12.5 1.04167Z" fill="white"/>
</g>
<defs>
<clipPath id="clip0_20_50">
<rect width="25" height="25" fill="white"/>
</clipPath>
</defs>
</svg>
