<?xml version="1.0" encoding="UTF-8" standalone="no"?><!DOCTYPE svg PUBLIC "-//W3C//DTD SVG 1.1//EN" "http://www.w3.org/Graphics/SVG/1.1/DTD/svg11.dtd"><svg width="100%" height="100%" viewBox="0 0 800 800" version="1.1" xmlns="http://www.w3.org/2000/svg" xmlns:xlink="http://www.w3.org/1999/xlink" xml:space="preserve" xmlns:serif="http://www.serif.com/" style="fill-rule:evenodd;clip-rule:evenodd;stroke-linejoin:round;stroke-miterlimit:2;"><path d="M400,0c-220.9,0 -400,179.1 -400,400c0,220.9 179.1,400 400,400c220.9,0 400,-179.1 400,-400c0,-220.9 -179.1,-400 -400,-400Zm-167.933,256c25.133,0 44.567,18.3 46.833,40c2.3,19.433 -5.7,36.567 -27.4,46.867c-11.433,5.7 -16,5.733 -18.3,2.3c-1.133,-2.3 0,-4.567 2.3,-6.867c20.567,-17.133 20.567,-30.867 18.267,-50.267c-1.133,-12.6 -10.267,-20.6 -19.433,-20.6c-40,0 -97.133,89.133 -89.133,154.3c3.433,25.133 18.3,54.867 50.3,54.867c10.267,0 21.667,-3.433 32,-8c16.667,-8.8 26.633,-15.667 36.567,-26.667c-2.433,-29.5 23.467,-68.2 61.7,-68.2c17.167,0 30.867,6.833 32,19.433c2.267,17.133 -12.567,19.4 -17.133,19.4c-4.567,0 -12.6,-1.133 -12.6,-5.667c-1.133,-4.6 10.3,-2.333 9.167,-12.6c-1.167,-6.867 -8,-9.133 -14.867,-9.133c-24,0 -37.7,33.133 -34.3,53.7c1.167,9.167 5.733,18.3 14.9,18.3c6.833,0 17.133,-10.333 20.567,-25.167c2.267,-10.267 11.433,-17.133 19.433,-17.133c3.4,0 5.667,1.133 6.833,5.7l0,4.6c-1.133,4.567 -4.567,18.267 -3.4,21.7c0,2.3 1.133,5.7 5.667,5.7c3.067,0 14.533,-6 25.9,-15.3c3.9,-19.667 8.433,-43.267 8.433,-45.233c1.133,-8 4.567,-16 20.567,-16c3.433,0 5.7,1.133 6.833,5.7l0,4.6l-4.533,20.567c14.833,-19.433 36.567,-33.133 50.267,-33.133c5.733,0 10.3,3.4 10.3,9.133c0,3.433 0,9.133 -2.3,14.867c-4.567,12.567 -10.3,32 -13.733,49.133c0,4.567 1.167,9.133 6.9,9.133c5.7,0 22.833,-6.867 36.533,-25.133l0.233,-0.133c-0.067,-2.267 -0.233,-4.467 -0.233,-6.733c0,-13.7 1.167,-25.133 3.467,-33.133c2.267,-9.133 13.7,-17.133 20.567,-17.133c3.433,0 6.833,2.3 6.833,5.7c0,1.167 0,3.433 -1.133,4.567c-4.567,14.867 -8,28.567 -8,42.3c0,8 1.133,19.4 3.4,26.267c0,1.133 1.167,2.3 2.333,2.3c2.267,0 18.267,-14.833 29.667,-34.267c-10.267,-6.867 -16,-18.3 -16,-32c0,-24 14.867,-36.567 28.6,-36.567c11.433,0 20.567,8 20.567,24c0,10.267 -3.433,21.667 -9.133,32l3.4,0c7.33,0.239 14.422,-2.676 19.467,-8c1.049,-1.731 2.61,-3.094 4.467,-3.9c11.167,-14.167 27.667,-24.667 47,-24.667c16,0 30.8,6.833 31.967,19.4c2.267,17.167 -12.6,20.6 -17.167,20.6l-0.067,-0.067c-4.6,0 -12.567,-1.167 -12.567,-5.733c0,-4.567 10.3,-2.267 9.133,-12.533c-1.133,-6.867 -8,-9.167 -14.867,-9.167c-22.867,0 -37.667,29.7 -34.267,53.7c1.133,9.167 5.7,19.433 14.833,19.433c6.867,0 17.167,-10.267 21.733,-25.133c2.267,-9.133 11.433,-17.133 19.433,-17.133c3.433,0 5.667,1.133 6.833,5.7c0,2.3 0,6.867 -4.567,21.733c-5.667,10.267 -5.7,16 -4.567,20.567c1.133,9.133 5.7,16 10.3,19.433c1.133,1.133 2.267,3.4 2.267,3.4c0,2.3 -1.133,4.6 -4.567,4.6c-1.133,0 -2.267,0 -3.433,-1.167c-17.133,-6.833 -24,-18.267 -26.3,-29.7c-6.833,8 -14.833,12.567 -24,12.567c-14.833,0 -29.667,-13.7 -32,-30.867c-0.655,-7.306 0.196,-14.669 2.5,-21.633c-6.767,4.333 -14.067,6.767 -20.767,6.767l-5.667,0c-14.9,21.733 -30.9,36.6 -42.333,43.433c-3.882,2.067 -8.174,3.251 -12.567,3.467c-2.267,0 -5.7,-1.167 -6.833,-3.467c-3.167,-5.067 -5.2,-13.067 -6.433,-22.233c-16.033,17.567 -38.167,26.833 -48.433,26.833c-11.433,0 -18.267,-6.867 -19.4,-18.333l0,-12.533c3.4,-25.133 12.567,-40 12.567,-44.567c-0.065,-1.242 -1.059,-2.251 -2.3,-2.333c-8,0 -34.267,27.467 -38.867,45.767l-3.433,14.833c-2.267,10.3 -12.567,17.167 -19.4,17.167c-3.433,0 -5.733,-1.167 -6.867,-5.733l0,-4.567l1.533,-7.767c-14.5,10.333 -29,16.933 -35.833,16.933c-10.267,0 -16,-5.733 -17.133,-13.733c-6.867,9.133 -14.833,13.733 -25.133,13.733c-11.733,0 -23.2,-8 -28.733,-19.767c-8.133,9.167 -17.433,18.433 -28.4,25.467c-16,10.3 -34.267,18.3 -56,18.3c-19.4,0 -36.567,-10.3 -45.7,-19.433c-13.733,-12.567 -21.7,-32 -22.867,-50.3c-6.833,-56 27.433,-128 80,-160c12.6,-6.833 25.167,-11.433 37.733,-11.433Zm325.667,109.7c-3.467,0 -5.733,5.733 -5.733,11.433c0,9.133 4.567,19.433 10.3,25.167c2.235,-6.236 3.385,-12.809 3.4,-19.433c-0,-11.433 -4.567,-17.167 -8,-17.167l0.033,0Z" style="fill:#fff;fill-rule:nonzero;stroke:#fff;stroke-width:1px;"/></svg>