<?xml version="1.0" encoding="UTF-8" standalone="no"?><!DOCTYPE svg PUBLIC "-//W3C//DTD SVG 1.1//EN" "http://www.w3.org/Graphics/SVG/1.1/DTD/svg11.dtd"><svg width="100%" height="100%" viewBox="0 0 800 800" version="1.1" xmlns="http://www.w3.org/2000/svg" xmlns:xlink="http://www.w3.org/1999/xlink" xml:space="preserve" xmlns:serif="http://www.serif.com/" style="fill-rule:evenodd;clip-rule:evenodd;stroke-linejoin:round;stroke-miterlimit:2;"><g id="_x30_8_email"><g><g><path d="M437.671,397.906c6.86,-0.745 11.816,-6.915 11.071,-13.776c-0.745,-6.866 -6.897,-11.793 -13.781,-11.077c-81.165,8.795 -119.757,-21.1 -137.824,-47.754c-25.244,-37.25 -25.806,-91.021 -1.429,-136.988c24.286,-45.782 66.95,-72.034 117.071,-72.034l0.036,0c38.184,0 72.436,15.576 91.626,41.656c20.02,27.204 23.291,65.015 9.473,109.356c-5.42,17.401 -23.107,40.229 -38.673,44.726c-6.348,1.855 -11.365,1.173 -15.295,-2.081c-4.529,-3.766 -6.152,-9.612 -6.018,-11.926c0.025,-0.146 0.036,-0.281 0.049,-0.427l13.696,-136.951c0.732,-6.866 -4.236,-13.025 -11.096,-13.751c-6.982,-0.762 -13.025,4.236 -13.757,11.102l-1.211,11.358c-0.219,-0.163 -0.399,-0.359 -0.62,-0.518c-16.016,-11.517 -38.459,-12.64 -60.059,-2.996c-36.78,16.394 -63.336,68.5 -56.836,111.499c4.876,32.251 27.613,53.138 62.396,57.306c15.966,1.899 35.565,-2.814 50.104,-13.563c2.111,3.034 4.603,5.793 7.385,8.105c10.302,8.545 23.865,10.993 38.208,6.86c25.11,-7.264 47.986,-36.877 55.602,-61.31c20.556,-65.991 4.163,-107.995 -13.207,-131.604c-23.889,-32.465 -65.674,-51.844 -111.768,-51.844l-0.036,0c-59.674,0 -110.394,31.098 -139.154,85.315c-28.663,54.04 -27.558,117.914 2.82,162.732c26.666,39.344 72.79,60.235 131.665,60.235c9.529,0.002 19.392,-0.546 29.561,-1.651Zm-1.257,-179.205l-7.116,74.268c-7.264,11.933 -26.319,18.433 -39.844,16.84c-23.761,-2.85 -37.432,-15.033 -40.637,-36.219c-4.81,-31.817 15.741,-73.096 42.298,-84.936c6.421,-2.862 12.915,-4.291 18.884,-4.291c6.286,0 12,1.593 16.394,4.755c7.874,5.657 11.329,15.888 10.022,29.584Z" style="fill:#fff;fill-rule:nonzero;"/><path d="M741.321,270.666l-90.796,-56.227l0,-189.439c0,-6.902 -5.591,-12.5 -12.5,-12.5l-482.061,0c-6.903,0 -12.5,5.598 -12.5,12.5l0,187.699c-43.392,27.355 -72.575,47.309 -86.456,59.183c-19.067,16.303 -29.565,39.539 -29.565,65.418l0,362.811c-0.001,48.188 39.201,87.39 87.383,87.39l570.355,0c23.546,0 44.906,-9.405 60.635,-24.604c0.029,-0.029 0.068,-0.038 0.095,-0.066c0.014,-0.015 0.016,-0.034 0.03,-0.049c16.384,-15.894 26.617,-38.094 26.617,-62.671l0,-362.811c0.001,-21.808 -8.177,-52.344 -31.236,-66.632Zm-90.796,-26.825l63.241,39.164l-63.241,55.161l0,-94.325Zm84.275,53.984c8.705,9.995 12.759,25.962 12.759,39.474l0,362.811c0,13.434 -4.364,25.811 -11.614,36.005l-241.056,-229.034l239.911,-209.256Zm-566.337,-260.325l457.062,0l0,322.461l-225.55,196.74l-231.513,-201.844l0,-317.357Zm-24.999,204.801l0,90.78l-58.724,-51.194c13.197,-9.796 33.027,-23.167 58.724,-39.586Zm-91.023,457.809l0,-362.811c0,-14.909 4.745,-28.006 13.477,-38.647l248.141,216.323l-241.792,230.496c-12.131,-11.39 -19.826,-27.446 -19.826,-45.36Zm62.384,62.39c-7.155,0 -13.922,-1.46 -20.329,-3.688l238.486,-227.342l58.776,51.24c2.356,2.051 5.286,3.076 8.215,3.076c2.929,0 5.865,-1.025 8.215,-3.083l67.777,-59.117l241.624,229.571c-9.472,5.814 -20.5,9.342 -32.409,9.342l-570.356,0Z" style="fill:#fff;fill-rule:nonzero;"/></g></g></g></svg>