<svg width="94" height="90" viewBox="0 0 94 90" fill="none" xmlns="http://www.w3.org/2000/svg">
<path d="M66.6988 3.07972H81.0397V17.1675H66.6988V3.07972ZM81.0426 24.2128V56.0503C81.1748 57.2794 81.2483 58.7025 81.2483 60.1453C81.2483 66.1725 79.9381 71.9044 77.5793 77.0991L77.6909 76.8235C75.1324 81.4275 71.0551 84.9882 66.1084 86.9372L65.9556 86.9907L52.637 80.9269C57.5456 79.2591 61.5083 76.0135 63.9464 71.8425L63.9993 71.7413C66.0496 67.8178 66.6988 63.27 66.6988 51.3225V24.21H81.0397L81.0426 24.2128ZM43.8774 35.0016C42.5203 34.546 40.9516 34.2844 39.3243 34.2844C39.2244 34.2844 39.1216 34.2844 39.0217 34.2872H39.0364C38.819 34.2732 38.5635 34.2647 38.3079 34.2647C32.3271 34.2647 27.4773 38.9082 27.4773 44.6344C27.4773 45.1378 27.5155 45.6357 27.589 46.1194L27.5831 46.0632C27.5214 46.4738 27.4832 46.9491 27.4832 47.4328C27.4832 52.9566 32.1597 57.4341 37.9289 57.4341C38.2873 57.4341 38.6398 57.4172 38.9894 57.3835L38.9453 57.3863C40.6873 57.3863 42.3969 57.2569 44.0654 57.0066L43.8803 57.0291L43.8774 35.0016ZM43.8774 3.00659H58.2183V66.5775C52.6341 67.7335 46.2068 68.4141 39.6209 68.4507H39.5916C22.0811 68.4507 12.9543 60.871 12.9543 46.3332C12.9308 45.9563 12.9161 45.5175 12.9161 45.076C12.9161 32.9766 23.1621 23.1666 35.7993 23.1666C36.4455 23.1666 37.0859 23.1919 37.7175 23.2425L37.6352 23.2369C37.7674 23.2341 37.9201 23.2341 38.0758 23.2341C40.138 23.2341 42.1355 23.4957 44.0331 23.985L43.8715 23.9513L43.8774 3.00659Z" fill="white"/>
</svg>
