<svg width="34" height="34" viewBox="0 0 34 34" fill="none" xmlns="http://www.w3.org/2000/svg">
<g clip-path="url(#clip0_48_602)">
<path d="M17.0453 26.9167C17.6036 26.9176 18.1566 26.8082 18.6725 26.5948C19.1884 26.3813 19.6571 26.068 20.0515 25.6728L25.6034 20.1167L23.6002 18.1192L18.4535 23.2673L18.4166 0H15.5833L15.6201 23.2447L10.4918 18.1163L8.48865 20.1167L14.0406 25.6686C14.4345 26.0643 14.9028 26.3782 15.4184 26.5924C15.9341 26.8066 16.487 26.9168 17.0453 26.9167Z" fill="white"/>
<path d="M31.1667 22.6665V29.7498C31.1667 30.1256 31.0174 30.4859 30.7517 30.7516C30.4861 31.0173 30.1257 31.1665 29.75 31.1665H4.25C3.87428 31.1665 3.51394 31.0173 3.24827 30.7516C2.98259 30.4859 2.83333 30.1256 2.83333 29.7498V22.6665H0V29.7498C0 30.877 0.447767 31.958 1.2448 32.755C2.04183 33.5521 3.12283 33.9998 4.25 33.9998H29.75C30.8772 33.9998 31.9582 33.5521 32.7552 32.755C33.5522 31.958 34 30.877 34 29.7498V22.6665H31.1667Z" fill="white"/>
</g>
<defs>
<clipPath id="clip0_48_602">
<rect width="34" height="34" fill="white"/>
</clipPath>
</defs>
</svg>
