<svg width="25" height="25" viewBox="0 0 25 25" fill="none" xmlns="http://www.w3.org/2000/svg">
<g clip-path="url(#clip0_20_42)">
<path d="M5.60719 18.4604C5.79678 18.65 6.04678 18.749 6.30303 18.749C6.43011 18.749 6.55928 18.725 6.68219 18.674C7.05199 18.5209 7.29053 18.1625 7.29053 17.7625V13.4813C7.93324 12.824 8.33219 11.9271 8.33219 10.9375C8.33219 8.92711 6.69678 7.29169 4.68636 7.29169C2.67594 7.29169 1.04053 8.92711 1.04053 10.9375C1.04053 11.9271 1.43949 12.8229 2.08219 13.4813V17.7625C2.08219 18.1625 2.32074 18.5209 2.69053 18.674C3.06136 18.8261 3.48324 18.7438 3.78428 18.4407L4.68532 17.4438L5.60511 18.4604H5.60719ZM2.08324 10.9375C2.08324 9.50107 3.25199 8.33336 4.6874 8.33336C6.12282 8.33336 7.29157 9.50107 7.29157 10.9375C7.29157 12.374 6.12282 13.5417 4.6874 13.5417C3.25199 13.5417 2.08324 12.374 2.08324 10.9375ZM3.1249 17.6188V14.2177C3.5999 14.4459 4.12594 14.5834 4.6874 14.5834C5.24886 14.5834 5.7749 14.4448 6.2499 14.2177V17.6188L5.07386 16.3177C4.87699 16.0979 4.49782 16.0979 4.30094 16.3177L3.1249 17.6188ZM9.3749 20.3125C9.3749 20.025 9.60824 19.7917 9.89574 19.7917H19.2707C19.5582 19.7917 19.7916 20.025 19.7916 20.3125C19.7916 20.6 19.5582 20.8334 19.2707 20.8334H9.89574C9.60824 20.8334 9.3749 20.6 9.3749 20.3125ZM10.9374 12.5C10.6499 12.5 10.4166 12.2667 10.4166 11.9792C10.4166 11.6917 10.6499 11.4584 10.9374 11.4584H19.2707C19.5582 11.4584 19.7916 11.6917 19.7916 11.9792C19.7916 12.2667 19.5582 12.5 19.2707 12.5H10.9374ZM9.89574 15.625H19.2707C19.5582 15.625 19.7916 15.8584 19.7916 16.1459C19.7916 16.4334 19.5582 16.6667 19.2707 16.6667H9.89574C9.60824 16.6667 9.3749 16.4334 9.3749 16.1459C9.3749 15.8584 9.60824 15.625 9.89574 15.625ZM23.0166 5.61357L19.3864 1.9844C18.1082 0.705235 16.4082 0.00106812 14.5989 0.00106812H8.85407C6.26969 0.00106812 4.16657 2.10419 4.16657 4.68857C4.16657 4.97607 4.3999 5.2094 4.6874 5.2094C4.9749 5.2094 5.20824 4.97607 5.20824 4.68857C5.20824 2.67815 6.84365 1.04273 8.85407 1.04273H14.5989C14.9478 1.04273 15.2895 1.08232 15.6249 1.14273V6.7719C15.6249 8.20836 16.7937 9.37607 18.2291 9.37607H23.8582C23.9186 9.71253 23.9582 10.0542 23.9582 10.4021V20.3136C23.9582 22.324 22.3228 23.9594 20.3124 23.9594H8.85407C7.18949 23.9594 5.7374 22.8354 5.32282 21.225C5.25199 20.9459 4.96553 20.7823 4.68844 20.8511C4.40928 20.9229 4.24157 21.2073 4.31344 21.4854C4.84678 23.5552 6.71344 25.0011 8.85303 25.0011H20.3114C22.8957 25.0011 24.9989 22.8979 24.9989 20.3136V10.4021C24.9989 8.59482 24.2947 6.89378 23.0155 5.61357H23.0166ZM18.2291 8.33336C17.3676 8.33336 16.6666 7.63232 16.6666 6.77086V1.43648C17.3999 1.72086 18.077 2.1469 18.6499 2.71982L22.2801 6.34898C22.853 6.92294 23.2791 7.59898 23.5624 8.33232L18.2291 8.33336Z" fill="white"/>
</g>
<defs>
<clipPath id="clip0_20_42">
<rect width="25" height="25" fill="white"/>
</clipPath>
</defs>
</svg>
