<svg width="94" height="90" viewBox="0 0 94 90" fill="none" xmlns="http://www.w3.org/2000/svg">
<g clip-path="url(#clip0_45_515)">
<mask id="mask0_45_515" style="mask-type:luminance" maskUnits="userSpaceOnUse" x="0" y="0" width="94" height="90">
<path d="M0 0H94V90H0V0Z" fill="white"/>
</mask>
<g mask="url(#mask0_45_515)">
<path fill-rule="evenodd" clip-rule="evenodd" d="M26.5844 33.2981C22.656 30.7669 20.0729 26.4703 20.0729 21.5967C20.0729 14.1591 26.0889 8.06672 33.7162 7.5375V7.5H59.8271V7.51078C67.6859 7.80609 73.9624 13.9997 73.9624 21.5967C73.9624 26.4703 71.3788 30.7664 67.4514 33.2981C71.3788 35.8294 73.9624 40.1259 73.9624 45C73.9624 52.7855 67.3706 59.0967 59.2396 59.0967C55.6534 59.1016 52.1895 57.8484 49.5028 55.5741V59.5472C49.5135 59.6859 49.5189 59.8261 49.5189 59.9677V73.1822C49.5189 78.3272 45.1611 82.5 39.787 82.5H34.7962C26.6647 82.5 20.0729 76.1887 20.0729 68.4033C20.0729 63.5297 22.6565 59.2336 26.5844 56.7019C22.656 54.1701 20.0729 49.8741 20.0729 45C20.0729 40.1264 22.6565 35.8298 26.5844 33.2981ZM25.9851 21.5967C25.9851 16.9373 29.9297 13.1606 34.7962 13.1606H43.6072V30.0328H34.7962C29.9297 30.0328 25.9851 26.2556 25.9851 21.5967ZM59.2396 30.0328H50.4286V13.1606H59.2396C64.1056 13.1606 68.0506 16.9373 68.0506 21.5967C68.0506 26.2556 64.1056 30.0328 59.2396 30.0328ZM34.7962 53.4361C29.9297 53.4361 25.9851 49.6589 25.9851 45C25.9851 40.3411 29.9297 36.5639 34.7962 36.5639H43.6072V53.4361H34.7962ZM34.7962 76.8398C29.9297 76.8398 25.9851 73.0622 25.9851 68.4033C25.9851 63.7444 29.9297 59.9677 34.7962 59.9677H43.6072V73.1822C43.6069 74.1522 43.2044 75.0824 42.488 75.7683C41.7716 76.4541 40.8001 76.8396 39.787 76.8398H34.7962ZM59.2396 53.4361C64.1056 53.4361 68.0506 49.6589 68.0506 45C68.0506 40.3406 64.1056 36.5639 59.2396 36.5639C54.3731 36.5639 50.4286 40.3411 50.4286 45C50.4286 49.6589 54.3731 53.4361 59.2396 53.4361Z" fill="white"/>
</g>
</g>
<defs>
<clipPath id="clip0_45_515">
<rect width="94" height="90" fill="white"/>
</clipPath>
</defs>
</svg>
