<svg width="31" height="32" viewBox="0 0 31 32" fill="none" xmlns="http://www.w3.org/2000/svg">
<g clip-path="url(#clip0_45_446)">
<path d="M14.1192 3.66652C13.842 2.61355 13.2368 1.684 12.397 1.02128C11.5572 0.358567 10.5295 -0.000488281 9.47244 -0.000488281C8.41536 -0.000488281 7.38766 0.358567 6.54788 1.02128C5.7081 1.684 5.1029 2.61355 4.82567 3.66652H0V6.33319H4.82567C5.1029 7.38617 5.7081 8.31572 6.54788 8.97843C7.38766 9.64115 8.41536 10.0002 9.47244 10.0002C10.5295 10.0002 11.5572 9.64115 12.397 8.97843C13.2368 8.31572 13.842 7.38617 14.1192 6.33319H31V3.66652H14.1192ZM9.47179 7.33319C9.02472 7.33319 8.5877 7.19634 8.21597 6.93995C7.84425 6.68356 7.55452 6.31915 7.38344 5.89279C7.21235 5.46642 7.16759 4.99727 7.25481 4.54465C7.34203 4.09202 7.55731 3.67626 7.87344 3.34994C8.18956 3.02362 8.59233 2.80139 9.03081 2.71136C9.46928 2.62133 9.92378 2.66753 10.3368 2.84414C10.7499 3.02074 11.1029 3.31981 11.3513 3.70353C11.5996 4.08724 11.7322 4.53837 11.7322 4.99986C11.7312 5.61837 11.4927 6.21125 11.069 6.6486C10.6453 7.08596 10.071 7.33213 9.47179 7.33319Z" fill="#8B8B8B"/>
<path d="M21.5282 11C20.4722 11.0039 19.4465 11.3644 18.6075 12.0265C17.7686 12.6885 17.1626 13.6158 16.8821 14.6667H0V17.3333H16.8821C17.1589 18.3866 17.7638 19.3164 18.6035 19.9794C19.4432 20.6424 20.471 21.0016 21.5282 21.0016C22.5854 21.0016 23.6132 20.6424 24.4529 19.9794C25.2926 19.3164 25.8976 18.3866 26.1743 17.3333H31V14.6667H26.1743C25.8938 13.6158 25.2878 12.6885 24.4489 12.0265C23.6099 11.3644 22.5842 11.0039 21.5282 11ZM21.5282 18.3333C21.0811 18.3333 20.6441 18.1965 20.2724 17.9401C19.9007 17.6837 19.6109 17.3193 19.4399 16.8929C19.2688 16.4666 19.224 15.9974 19.3112 15.5448C19.3984 15.0922 19.6137 14.6764 19.9299 14.3501C20.246 14.0238 20.6487 13.8015 21.0872 13.7115C21.5257 13.6215 21.9802 13.6677 22.3932 13.8443C22.8063 14.0209 23.1593 14.32 23.4077 14.7037C23.6561 15.0874 23.7886 15.5385 23.7886 16C23.7879 16.6186 23.5496 17.2117 23.1258 17.6491C22.702 18.0866 22.1275 18.3326 21.5282 18.3333Z" fill="#8B8B8B"/>
<path d="M9.47179 22C8.41513 22.003 7.3885 22.3631 6.5488 23.0253C5.7091 23.6874 5.10253 24.6151 4.82179 25.6667H0V28.3333H4.82567C5.1029 29.3863 5.7081 30.3159 6.54788 30.9786C7.38766 31.6413 8.41536 32.0003 9.47244 32.0003C10.5295 32.0003 11.5572 31.6413 12.397 30.9786C13.2368 30.3159 13.842 29.3863 14.1192 28.3333H31V25.6667H14.1192C13.8386 24.6156 13.2324 23.6881 12.3932 23.0261C11.554 22.364 10.528 22.0036 9.47179 22ZM9.47179 29.3333C9.02472 29.3333 8.5877 29.1965 8.21597 28.9401C7.84425 28.6837 7.55452 28.3193 7.38344 27.8929C7.21235 27.4666 7.16759 26.9974 7.25481 26.5448C7.34203 26.0922 7.55731 25.6764 7.87344 25.3501C8.18956 25.0238 8.59233 24.8015 9.03081 24.7115C9.46928 24.6215 9.92378 24.6677 10.3368 24.8443C10.7499 25.0209 11.1029 25.32 11.3513 25.7037C11.5996 26.0874 11.7322 26.5385 11.7322 27C11.7312 27.6185 11.4927 28.2114 11.069 28.6487C10.6453 29.0861 10.071 29.3323 9.47179 29.3333Z" fill="#8B8B8B"/>
</g>
<defs>
<clipPath id="clip0_45_446">
<rect width="31" height="32" fill="white"/>
</clipPath>
</defs>
</svg>
