<svg width="25" height="25" viewBox="0 0 25 25" fill="none" xmlns="http://www.w3.org/2000/svg">
<g clip-path="url(#clip0_20_44)">
<path d="M24.5792 12.3198C24.1719 11.7729 23.5448 11.4583 22.8583 11.4583H21.876V7.81249C21.876 5.22812 19.7729 3.12499 17.1885 3.12499H10.8802C10.6385 3.12499 10.3969 3.0677 10.1813 2.96041L6.89479 1.31666C6.53542 1.13749 6.13333 1.04166 5.73021 1.04166H3.64688C1.63542 1.04166 0 2.67707 0 4.68749V19.2708C0 21.8552 2.10313 23.9583 4.6875 23.9583H18.8104C20.8969 23.9583 22.701 22.6156 23.3073 20.5948L24.9083 14.201C25.1042 13.549 24.9833 12.8635 24.5792 12.3198ZM1.04167 19.2708V4.68749C1.04167 3.25207 2.20938 2.08332 3.64583 2.08332H5.72917C5.97083 2.08332 6.2125 2.14061 6.42813 2.24791L9.71458 3.89166C10.074 4.07082 10.476 4.16666 10.8792 4.16666H17.1875C19.1979 4.16666 20.8333 5.80207 20.8333 7.81249V11.4583H8.45312C6.90104 11.4583 5.51771 12.4354 5.00417 13.9104L2.46979 22.1646C1.60104 21.4979 1.04063 20.449 1.04063 19.2719L1.04167 19.2708ZM23.9042 13.925L22.3031 20.3187C21.8365 21.8729 20.4323 22.9167 18.8094 22.9167H4.6875C4.23438 22.9167 3.80104 22.8333 3.40208 22.6823L5.99479 14.2333C6.35625 13.1958 7.34375 12.499 8.45312 12.499H22.8573C23.2115 12.499 23.5333 12.6594 23.7438 12.9406C23.95 13.2177 24.0115 13.5687 23.9042 13.924V13.925Z" fill="white"/>
</g>
<defs>
<clipPath id="clip0_20_44">
<rect width="25" height="25" fill="white"/>
</clipPath>
</defs>
</svg>
