<svg width="94" height="90" viewBox="0 0 94 90" fill="none" xmlns="http://www.w3.org/2000/svg">
<g clip-path="url(#clip0_48_538)">
<path fill-rule="evenodd" clip-rule="evenodd" d="M47 0C72.9581 0 94 20.6547 94 46.1382C94 66.5187 80.5486 83.8078 61.8849 89.9143C59.502 90.3688 58.656 88.928 58.656 87.6995C58.656 86.1785 58.7124 81.2106 58.7124 75.0366C58.7124 70.7346 57.2084 67.9268 55.5211 66.4958C65.988 65.3529 76.986 61.451 76.986 43.73C76.986 38.69 75.1624 34.5772 72.145 31.3462C72.6338 30.1807 74.2459 25.4878 71.6844 19.1338C71.6844 19.1338 67.7458 17.8975 58.7735 23.8645C55.0182 22.843 50.995 22.329 47 22.311C43.005 22.329 38.9865 22.843 35.2359 23.8645C26.2542 17.8975 22.3062 19.1338 22.3062 19.1338C19.7541 25.4878 21.3662 30.1807 21.8503 31.3462C18.847 34.5772 17.0093 38.69 17.0093 43.73C17.0093 61.406 27.9838 65.3677 38.4225 66.5332C37.0783 67.6852 35.861 69.7174 35.438 72.7009C32.759 73.8799 25.9534 75.9204 21.761 68.8689C21.761 68.8689 19.2747 64.4358 14.5559 64.1118C14.5559 64.1118 9.9734 64.0535 14.2363 66.9155C14.2363 66.9155 17.3148 68.333 19.4533 73.6655C19.4533 73.6655 22.2122 81.9004 35.2876 79.1104C35.3111 82.9669 35.3534 86.6015 35.3534 87.6995C35.3534 88.919 34.4886 90.3462 32.1433 89.9187C13.4655 83.8212 0 66.5232 0 46.1382C0 20.6547 21.0466 0 47 0Z" fill="white"/>
</g>
<defs>
<clipPath id="clip0_48_538">
<rect width="94" height="90" fill="white"/>
</clipPath>
</defs>
</svg>
