<svg width="25" height="25" viewBox="0 0 25 25" fill="none" xmlns="http://www.w3.org/2000/svg">
<g clip-path="url(#clip0_20_25)">
<path d="M22.9344 6.07368L21.875 5.35909V1.56222C21.875 1.27472 21.6417 1.04138 21.3542 1.04138C21.0667 1.04138 20.8333 1.27472 20.8333 1.56222V4.65597L15.1219 0.801801C13.5292 -0.273199 11.4698 -0.272158 9.87917 0.801801L2.06562 6.07368C0.771875 6.94555 0 8.39868 0 9.95909V20.3122C0 22.8966 2.10312 24.9997 4.6875 24.9997H7.8125C8.1 24.9997 8.33333 24.7664 8.33333 24.4789V15.1039C8.33333 14.2424 9.03437 13.5414 9.89583 13.5414H15.1042C15.9656 13.5414 16.6667 14.2424 16.6667 15.1039V24.4789C16.6667 24.7664 16.9 24.9997 17.1875 24.9997H20.3125C22.8969 24.9997 25 22.8966 25 20.3122V9.95909C25 8.39764 24.2281 6.94555 22.9344 6.07368ZM23.9583 20.3122C23.9583 22.3226 22.3229 23.9581 20.3125 23.9581H17.7083V15.1039C17.7083 13.6685 16.5406 12.4997 15.1042 12.4997H9.89583C8.45937 12.4997 7.29167 13.6685 7.29167 15.1039V23.9581H4.6875C2.67708 23.9581 1.04167 22.3226 1.04167 20.3122V9.95909C1.04167 8.74451 1.64167 7.61534 2.64792 6.93722L10.4604 1.66534C11.699 0.828884 13.301 0.828884 14.5396 1.66534L22.3521 6.93722C23.3583 7.61534 23.9583 8.74555 23.9583 9.95909V20.3122Z" fill="white"/>
</g>
<defs>
<clipPath id="clip0_20_25">
<rect width="25" height="25" fill="white"/>
</clipPath>
</defs>
</svg>
