<svg width="94" height="90" viewBox="0 0 94 90" fill="none" xmlns="http://www.w3.org/2000/svg">
<g clip-path="url(#clip0_45_493)">
<path d="M3.13334 3V0C2.2571 0 1.42089 0.351299 0.82758 0.96867C0.234267 1.58605 -0.0619346 2.41308 0.0108333 3.24914L3.13334 3ZM90.8667 3L93.9893 3.24914C94.062 2.41308 93.7656 1.58605 93.1722 0.96867C92.5794 0.351299 91.7428 0 90.8667 0V3ZM84.6 75L85.5908 77.8458C86.7802 77.4666 87.6187 76.4448 87.7227 75.249L84.6 75ZM47 87L46.0092 89.8458C46.6523 90.0516 47.3477 90.0516 47.9908 89.8458L47 87ZM9.40001 75L6.27752 75.249C6.38161 76.4448 7.22009 77.4666 8.40919 77.8458L9.40001 75ZM28.2 21V18H25.0667V21H28.2ZM28.2 39H25.0667V42H28.2V39ZM65.8 39H68.9333V36H65.8V39ZM65.8 57L66.7908 59.846L68.9333 59.1623V57H65.8ZM47 63L46.0092 65.8458L47 66.162L47.9908 65.8458L47 63ZM28.2 57H25.0667V59.1623L27.2092 59.846L28.2 57ZM3.13334 6H90.8667V0H3.13334V6ZM87.744 2.75086L81.4773 74.751L87.7227 75.249L93.9893 3.24914L87.744 2.75086ZM83.6092 72.1542L46.0092 84.1542L47.9908 89.8458L85.5908 77.8458L83.6092 72.1542ZM47.9908 84.1542L10.3908 72.1542L8.40919 77.8458L46.0092 89.8458L47.9908 84.1542ZM12.5225 74.751L6.25585 2.75086L0.0108333 3.24914L6.27752 75.249L12.5225 74.751ZM68.9333 18H28.2V24H68.9333V18ZM25.0667 21V39H31.3333V21H25.0667ZM28.2 42H65.8V36H28.2V42ZM62.6667 39V57H68.9333V39H62.6667ZM64.8092 54.154L46.0092 60.1542L47.9908 65.8458L66.7908 59.846L64.8092 54.154ZM47.9908 60.1542L29.1908 54.154L27.2092 59.846L46.0092 65.8458L47.9908 60.1542ZM31.3333 57V48H25.0667V57H31.3333Z" fill="white"/>
</g>
<defs>
<clipPath id="clip0_45_493">
<rect width="94" height="90" fill="white"/>
</clipPath>
</defs>
</svg>
