<svg version="1.1" xmlns="http://www.w3.org/2000/svg" xmlns:xlink="http://www.w3.org/1999/xlink" width="19.2px" height="19.2px" viewBox="0,0,256,256"><g fill="#ffffff" fill-rule="nonzero" stroke="none" stroke-width="1" stroke-linecap="butt" stroke-linejoin="miter" stroke-miterlimit="10" stroke-dasharray="" stroke-dashoffset="0" font-family="none" font-weight="none" font-size="none" text-anchor="none" style="mix-blend-mode: normal"><g transform="scale(13.33333,13.33333)"><path d="M13.498,6.651c-0.16845,-0.43629 -0.51353,-0.78101 -0.95,-0.949c-0.2972,-0.11007 -0.6111,-0.16825 -0.928,-0.172c-0.527,-0.024 -0.685,-0.03 -2.02,-0.03c-1.335,0 -1.493,0.006 -2.02,0.03c-0.31724,0.00363 -0.63149,0.06181 -0.929,0.172c-0.43629,0.16845 -0.78101,0.51353 -0.949,0.95c-0.11007,0.2972 -0.16825,0.6111 -0.172,0.928c-0.024,0.527 -0.03,0.685 -0.03,2.02c0,1.335 0.006,1.493 0.03,2.02c0.00363,0.31724 0.06181,0.63149 0.172,0.929c0.16845,0.43629 0.51353,0.78101 0.95,0.949c0.2972,0.11007 0.6111,0.16825 0.928,0.172c0.527,0.024 0.685,0.03 2.02,0.03c1.335,0 1.493,-0.006 2.02,-0.03c0.31724,-0.00363 0.63149,-0.06181 0.929,-0.172c0.43629,-0.16845 0.78101,-0.51353 0.949,-0.95c0.11007,-0.2972 0.16825,-0.6111 0.172,-0.928c0.024,-0.527 0.03,-0.685 0.03,-2.02c0,-1.335 -0.006,-1.493 -0.03,-2.02c-0.00363,-0.31724 -0.06181,-0.63149 -0.172,-0.929zM9.6,12.168c-1.41827,0 -2.568,-1.14973 -2.568,-2.568c0,-1.41827 1.14973,-2.568 2.568,-2.568c1.41827,0 2.568,1.14973 2.568,2.568c0,1.41827 -1.14973,2.568 -2.568,2.568zM12.269,7.531c-0.33137,0 -0.6,-0.26863 -0.6,-0.6c0,-0.33137 0.26863,-0.6 0.6,-0.6c0.33137,0 0.6,0.26863 0.6,0.6c0,0.33137 -0.26863,0.6 -0.6,0.6z"></path><circle cx="9.6" cy="9.6" r="1.667"></circle><path d="M9.6,0c-5.30193,0 -9.6,4.29807 -9.6,9.6c0,5.30193 4.29807,9.6 9.6,9.6c5.30193,0 9.6,-4.29807 9.6,-9.6c0,-5.30193 -4.29807,-9.6 -9.6,-9.6zM14.57,11.662c-0.00858,0.41459 -0.08736,0.82473 -0.233,1.213c-0.25968,0.67149 -0.79051,1.20232 -1.462,1.462c-0.38827,0.14564 -0.79841,0.22442 -1.213,0.233c-0.534,0.024 -0.704,0.03 -2.062,0.03c-1.358,0 -1.528,-0.006 -2.062,-0.03c-0.41459,-0.00858 -0.82473,-0.08736 -1.213,-0.233c-0.67149,-0.25968 -1.20232,-0.79051 -1.462,-1.462c-0.14564,-0.38827 -0.22442,-0.79841 -0.233,-1.213c-0.024,-0.534 -0.03,-0.704 -0.03,-2.062c0,-1.358 0.006,-1.528 0.03,-2.062c0.00858,-0.41459 0.08736,-0.82473 0.233,-1.213c0.25968,-0.67149 0.79051,-1.20232 1.462,-1.462c0.38827,-0.14564 0.79841,-0.22442 1.213,-0.233c0.534,-0.024 0.704,-0.03 2.062,-0.03c1.358,0 1.528,0.006 2.062,0.03c0.41459,0.00858 0.82473,0.08736 1.213,0.233c0.67149,0.25968 1.20232,0.79051 1.462,1.462c0.14564,0.38827 0.22442,0.79841 0.233,1.213c0.024,0.534 0.03,0.704 0.03,2.062c0,1.358 -0.006,1.528 -0.03,2.062z"></path></g></g></svg>