<svg width="94" height="90" viewBox="0 0 94 90" fill="none" xmlns="http://www.w3.org/2000/svg">
<path d="M35.6021 36.6274C34.7339 34.7894 34.3447 32.6456 35.008 30.6981C35.6712 28.707 37.1566 27.1099 38.6421 25.6219C42.7775 21.6613 47.8741 18.7515 51.9189 14.7259C54.1581 12.5158 56.009 9.86836 56.6486 6.82682C57.1744 4.59527 56.9233 2.29799 56.4435 0.0878906C58.5916 2.42912 59.3001 5.7767 58.6828 8.79627C58.0204 12.1874 56.0545 15.1849 53.7467 17.7666C51.8959 19.8455 49.7703 21.6833 47.5539 23.3903C44.9717 25.3814 42.4353 27.5254 40.8131 30.3261C39.4413 32.6013 39.1213 35.402 40.0585 37.8745C41.5899 42.1189 45.1543 45.2698 47.0971 49.2736C44.9485 47.4574 42.8466 45.5759 40.8807 43.5851C38.8248 41.4846 36.882 39.2532 35.6021 36.6274ZM47.2567 33.3014C46.8684 36.7805 48.7645 40.0623 51.0275 42.6444C52.1239 43.8038 53.061 45.2261 53.1063 46.8453C53.1524 49.0106 51.8733 51.0244 50.2269 52.4459C50.6159 52.4027 50.89 52.0741 51.21 51.8992C53.6781 50.3895 56.0541 48.4859 57.2653 45.8828C58.0652 44.1104 57.8825 42.0096 56.8316 40.3683C55.5972 38.443 53.9751 36.7363 53.0155 34.6361C52.4891 33.4547 52.3064 32.0764 52.7408 30.8292C53.3125 29.1447 54.5463 27.7661 55.8491 26.5627C59.4365 23.303 63.7783 20.9828 67.9376 18.4453C62.6815 19.8891 57.4942 21.8804 53.061 25.0095C50.25 27.0223 47.6454 29.8227 47.2567 33.3014ZM72.2344 49.7552C74.7254 49.8867 77.1698 51.6368 77.6273 54.0438C78.0617 56.1224 77.0108 58.1788 75.6619 59.754C73.445 62.292 70.4512 64.1083 67.4356 65.6619C67.1379 65.8361 66.8867 66.0551 66.6581 66.2961C70.6346 65.3331 74.6103 63.8898 77.8329 61.4171C79.6147 59.9948 81.1916 58.1126 81.5347 55.8591C81.8547 53.9121 81.0097 51.8991 79.5011 50.6083C77.6725 49.0104 75.091 48.4202 72.6681 48.7267C71.274 48.9016 69.7432 49.1861 68.7836 50.3019C69.9267 50.0838 71.0455 49.6457 72.2344 49.7552ZM22.6224 56.0122C25.6156 56.778 28.7009 56.9971 31.763 57.1941C34.5052 57.369 37.2479 57.4131 40.0132 57.391C47.1427 57.2822 54.3181 56.8222 61.3106 55.3345C61.973 55.1816 62.7046 55.0721 63.2995 54.6783C64.4647 53.9559 65.7436 53.3869 67.0011 52.8181C61.3106 53.6933 55.5975 54.4379 49.8391 54.7877C44.0118 55.1377 38.1385 55.3565 32.2888 54.9847C30.6207 54.8318 28.9065 54.7437 27.3527 54.1308C26.9866 53.9779 26.4838 53.6722 26.6665 53.212C27.0096 52.6212 27.6951 52.3371 28.2892 52.0307C30.8034 50.8929 33.5453 50.2587 36.2192 49.5148C31.6255 49.4487 27.0549 50.5644 22.851 52.2932C21.9138 52.731 20.8627 53.0808 20.1089 53.8249C19.8111 54.1306 19.8111 54.6567 20.1542 54.9186C20.8399 55.5094 21.7535 55.7719 22.6224 56.0122ZM59.643 62.0297C55.6436 62.708 51.6211 63.3431 47.5761 63.5395C43.1429 63.8239 38.7097 63.5829 34.3223 63.1455C33.4771 63.036 32.6312 62.9051 31.8774 62.5333C31.4889 62.3143 31.1006 61.9645 31.1236 61.5043C31.1689 60.7825 31.8084 60.2796 32.2659 59.7542C30.8495 60.2357 29.4323 60.7384 28.2441 61.6365C27.7407 62.0084 27.2384 62.5987 27.3751 63.2551C27.5817 64.0208 28.3585 64.4803 29.044 64.8301C30.7345 65.662 32.6314 66.0335 34.483 66.3618C39.1666 67.0843 43.943 67.1062 48.6503 66.7992C53.6333 66.4274 58.5916 65.6401 63.4133 64.2832C62.0422 63.6929 60.7394 63.0139 59.643 62.0297ZM34.5281 69.6008C33.2485 69.9506 31.9457 70.3666 30.8948 71.1752C30.3683 71.5692 29.9576 72.2482 30.2093 72.8826C30.5293 73.6919 31.3292 74.1741 32.0825 74.5886C34.0484 75.6176 36.2647 76.0983 38.4356 76.4708C43.3494 77.2142 48.3992 77.105 53.2898 76.2739C56.1916 75.7485 59.0941 75.0046 61.7903 73.8455C60.0308 73.1452 58.3173 72.3572 56.6721 71.4386C53.8156 71.9198 50.9355 72.4235 48.0105 72.5984C44.1492 72.8828 40.241 72.5764 36.3789 72.1171C35.4646 71.92 34.3223 71.8327 33.7053 71.0666C33.386 70.4315 34.1169 69.972 34.5281 69.6008ZM65.7899 83.6687C68.9889 83.0352 72.2115 82.3119 75.1363 80.8903C76.0499 80.3863 77.1698 79.8393 77.4676 78.7897C77.6273 77.7834 76.5303 77.258 75.7534 76.8421C76.2331 77.3682 76.5531 78.1335 76.0728 78.7458C75.2729 79.7746 73.9026 80.168 72.691 80.562C68.898 81.5903 64.9669 82.0062 61.0594 82.4221C50.7075 83.3189 40.2865 83.5379 29.9352 82.7065C26.4616 82.356 22.9188 81.9842 19.6054 80.8029C19.0804 80.5839 18.2804 80.3649 18.2804 79.6864C18.4855 79.0968 19.0804 78.7676 19.6054 78.4832C21.9821 77.3239 24.633 76.689 27.2837 76.536C26.5075 76.0982 25.5932 76.0547 24.702 76.0767C22.4849 76.1423 20.3141 76.689 18.2121 77.3682C16.4067 78.0017 14.5557 78.7024 13.1156 79.9717C12.5444 80.4524 12.0193 81.3712 12.6127 82.0281C13.527 82.9691 14.9442 83.2094 16.2001 83.4938C23.2388 84.6538 30.3683 85.3093 37.499 85.5503C46.9598 85.8136 56.4889 85.4195 65.7899 83.6687ZM75.1593 84.8507C70.8628 86.1634 66.407 86.8852 61.9732 87.4761C54.3181 88.3949 46.5937 88.6794 38.8925 88.461C34.2081 88.2861 29.5237 87.9797 24.9071 87.2351C25.9811 87.9354 27.3068 88.1539 28.5411 88.4825C33.7289 89.533 39.0528 89.7298 44.332 89.8828C52.0779 90.0142 59.825 89.7298 67.4579 88.57C71.069 87.9583 74.7023 87.2139 77.9466 85.5946C79.6384 84.7413 81.3526 83.4279 81.6484 81.5249C79.9351 83.2748 77.4676 84.0848 75.1593 84.8507Z" fill="white"/>
</svg>
