<svg width="94" height="90" viewBox="0 0 94 90" fill="none" xmlns="http://www.w3.org/2000/svg">
<path d="M40.0593 45.2673C40.0593 56.6437 40.9082 66.2028 35.0455 71.86C31.748 75.0425 26.545 76.9176 20.1432 76.9176C9.64314 76.9176 3.81312 72.02 0.092041 65.2429C3.67432 63.0528 7.33518 60.9359 11.0664 58.8877C12.5887 62.9637 17.7292 67.5463 23.5302 64.7254C27.207 62.9359 26.7825 57.5113 26.7825 51.6232C26.7825 39.3978 26.7825 25.2947 26.7825 14.2647C26.771 14.0812 26.7596 13.8979 26.9169 13.8756C31.2986 13.8756 35.6795 13.8756 40.0595 13.8756C40.0593 23.7008 40.0593 34.8167 40.0593 45.2673ZM73.3874 37.8741C70.0374 36.5005 65.8733 34.8756 64.8525 31.906C63.7082 28.5777 65.6596 25.8357 67.8324 24.9027C72.6101 22.8481 78.3043 26.2309 79.4839 29.7017C83.0792 27.6526 86.6629 25.5912 89.9167 23.216C86.0932 17.1368 80.4885 12.7848 70.2717 13.0979C64.6464 13.27 60.4206 14.9703 57.2657 17.5079C54.1867 19.9838 51.8091 23.4588 51.439 28.4044C50.3328 43.2073 61.9016 46.9859 71.7619 51.1043C74.8701 52.4024 78.3256 53.7132 79.7556 56.2928C82.7043 61.6158 77.481 65.1276 72.9813 65.5032C65.7595 66.1056 60.8902 62.0602 58.0781 57.8497C54.5654 59.9345 50.7457 61.7248 47.375 63.9463C52.0634 71.8403 59.7508 76.9506 71.7619 76.9177C84.0149 76.8847 93.099 71.2284 93.8447 60.5741C94.8587 46.0926 83.5271 42.0301 73.3874 37.8741Z" fill="white" fill-opacity="0.69"/>
</svg>
