<svg version="1.1" xmlns="http://www.w3.org/2000/svg" xmlns:xlink="http://www.w3.org/1999/xlink" width="800px" height="800px" viewBox="0,0,256,256"><g fill="#ffffff" fill-rule="nonzero" stroke="none" stroke-width="1" stroke-linecap="butt" stroke-linejoin="miter" stroke-miterlimit="10" stroke-dasharray="" stroke-dashoffset="0" font-family="none" font-weight="none" font-size="none" text-anchor="none" style="mix-blend-mode: normal"><g transform="translate(71.5,-72.5) scale(0.5,0.5)"><path d="M113,145c-141.4,0 -256,114.6 -256,256c0,141.4 114.6,256 256,256c141.4,0 256,-114.6 256,-256c0,-141.4 -114.6,-256 -256,-256zM41.4,508.1h-49.9v-159.7h49.9zM15.1,328.4h-0.4c-18.1,0 -29.8,-12.2 -29.8,-27.7c0,-15.8 12.1,-27.7 30.5,-27.7c18.4,0 29.7,11.9 30.1,27.7c0.1,15.4 -11.6,27.7 -30.4,27.7zM241,508.1h-56.6v-82.6c0,-21.6 -8.8,-36.4 -28.3,-36.4c-14.9,0 -23.2,10 -27,19.6c-1.4,3.4 -1.2,8.2 -1.2,13.1v86.3h-56.1c0,0 0.7,-146.4 0,-159.7h56.1v25.1c3.3,-11 21.2,-26.6 49.8,-26.6c35.5,0 63.3,23 63.3,72.4z"></path></g></g></svg>