<svg width="94" height="90" viewBox="0 0 94 90" fill="none" xmlns="http://www.w3.org/2000/svg">
<path d="M31.5495 35.9253C29.5048 33.6845 26.2517 32.5638 21.7922 32.5638H6.96922L0.0917969 66.4437H7.7998L9.62839 57.4365H16.231C19.1444 57.4365 21.5411 57.1442 23.4229 56.5571C25.3042 55.9718 27.0144 54.9891 28.5534 53.6098C29.8454 52.473 30.8897 51.2193 31.6905 49.8481C32.4899 48.4775 33.0579 46.9651 33.3939 45.3108C34.2096 41.2946 33.594 38.1665 31.5495 35.9253ZM25.4265 44.7933C24.8935 47.4154 23.8674 49.2868 22.3467 50.4079C20.825 51.5294 18.5101 52.09 15.4028 52.09H10.7134L13.5918 37.9102H18.8734C21.8021 37.9102 23.7537 38.4276 24.7293 39.4627C25.7042 40.4984 25.9372 42.2751 25.4265 44.7933ZM62.0231 41.6707L58.8233 57.4365H51.0541L54.0966 42.4463C54.4425 40.7408 54.3157 39.5775 53.714 38.9575C53.1133 38.3372 51.8337 38.0266 49.8769 38.0266H43.7653L39.8257 57.4365H32.1779L39.0554 23.5566H46.7031L44.8747 32.5638H51.6881C55.9743 32.5638 58.9312 33.2805 60.5588 34.7115C62.1865 36.1435 62.6736 38.4634 62.0231 41.6707ZM91.715 35.9253C89.6703 33.6845 86.4172 32.5638 81.9585 32.5638H67.1355L60.258 66.4437H67.966L69.7946 57.4365H76.3972C79.3107 57.4365 81.7064 57.1442 83.5884 56.5571C85.4697 55.9718 87.1799 54.9891 88.7189 53.6098C90.0107 52.473 91.0559 51.2193 91.8562 49.8481C92.6555 48.4775 93.2234 46.9651 93.5594 45.3108C94.3749 41.2946 93.7602 38.1665 91.715 35.9253ZM85.5925 44.7933C85.0597 47.4154 84.0336 49.2868 82.512 50.4079C80.9911 51.5294 78.6756 52.09 75.5681 52.09H70.8797L73.7581 37.9102H79.0391C81.9678 37.9102 83.9192 38.4276 84.8956 39.4627C85.8705 40.4984 86.1025 42.2751 85.5925 44.7933Z" fill="white"/>
</svg>
