<svg width="94" height="90" viewBox="0 0 94 90" fill="none" xmlns="http://www.w3.org/2000/svg">
<g clip-path="url(#clip0_45_534)">
<path d="M64.1309 14.0376C64.1309 6.28479 57.5671 0 49.4671 0H40.6701C32.5705 0 26.0081 6.28479 26.0081 14.0376V18.9684H44.9213V22.9387L17.199 22.9499C9.10137 22.9499 2.53754 29.2347 2.53754 36.99V45.4124C2.53754 53.1654 9.10165 59.4502 17.199 59.4502H25.6165V43.2443H64.1369L64.1309 14.0376ZM33.6232 14.7379C32.4437 14.7379 31.4879 13.8228 31.4879 12.6951C31.4879 11.5663 32.4437 10.6506 33.6232 10.6506C34.8008 10.6506 35.7569 11.5663 35.7569 12.6951C35.7566 13.8228 34.8008 14.7379 33.6232 14.7379Z" fill="white"/>
<path d="M76.801 30.5496H68.3835V46.7555H29.8631L29.8691 75.9625C29.8691 83.7153 36.4332 90.0001 44.5329 90.0001H53.3299C61.4296 90.0001 67.9919 83.7153 67.9919 75.9625V71.0317H49.0787V67.0614L76.801 67.0501C84.8984 67.0501 91.4625 60.7653 91.4625 53.0104V44.5877C91.4628 36.8344 84.8986 30.5496 76.801 30.5496ZM60.3771 75.2621C61.5569 75.2621 62.5124 76.1773 62.5124 77.305C62.5124 78.4338 61.5569 79.3495 60.3771 79.3495C59.1995 79.3495 58.2434 78.4338 58.2434 77.305C58.2434 76.1773 59.1995 75.2621 60.3771 75.2621Z" fill="white"/>
</g>
<defs>
<clipPath id="clip0_45_534">
<rect width="94" height="90" fill="white"/>
</clipPath>
</defs>
</svg>
