<svg width="94" height="90" viewBox="0 0 94 90" fill="none" xmlns="http://www.w3.org/2000/svg">
<path d="M54.8693 44.9321C54.8693 40.8979 51.3463 37.627 47 37.627C42.6543 37.627 39.1307 40.8979 39.1307 44.9321C39.1307 48.967 42.6543 52.2376 47 52.2376C51.3463 52.2376 54.8693 48.967 54.8693 44.9321Z" fill="white"/>
<path fill-rule="evenodd" clip-rule="evenodd" d="M72.5574 31.3698C74.2192 25.1009 76.308 13.476 68.9443 9.53482C61.6149 5.61079 52.0772 13.13 47.0408 17.6433C42.0192 13.1749 32.2135 5.68791 24.856 9.64164C17.5296 13.5788 19.7889 25.011 21.4875 31.3192C14.6532 33.1211 2.9375 37.0024 2.9375 44.9322C2.9375 52.8396 14.641 57.0622 21.4349 58.8625C19.73 65.2056 17.5838 76.4744 24.9196 80.4029C32.3046 84.3559 42.0797 77.047 47.1627 72.4843C52.2314 77.0242 61.6775 84.3809 69.0083 80.4414C76.3621 76.4896 74.4468 65.0205 72.7481 58.6758C79.3339 56.8716 91.0625 52.7408 91.0625 44.9322C91.0625 37.0786 79.284 33.1658 72.5574 31.3698ZM71.7226 55.3134C70.6072 52.0357 69.1018 48.5502 67.2602 44.9497C69.018 41.434 70.465 37.9935 71.5493 34.7369C76.4805 36.0641 87.2981 39.0974 87.2981 44.9322C87.2981 50.8219 76.9173 53.8838 71.7226 55.3134ZM67.1219 77.4169C61.6523 80.3559 53.5274 73.3207 49.7842 69.9775C52.2675 67.4561 54.7491 64.5249 57.1711 61.27C61.4316 60.9193 65.4563 60.3456 69.1065 59.5623C70.302 64.0502 72.6156 74.4646 67.1219 77.4169ZM26.8006 77.375C21.3305 74.4469 23.8307 64.3911 25.085 59.7186C28.6945 60.46 32.6903 60.9933 36.9608 61.3147C39.3986 64.4996 41.9522 67.4272 44.5255 69.991C41.3462 72.846 32.2963 80.3166 26.8006 77.375ZM6.70188 44.9322C6.70188 39.0206 17.4548 36.0093 22.4984 34.6854C23.6014 38.0152 25.0479 41.4967 26.7936 45.0174C25.0253 48.5904 23.5581 52.1272 22.445 55.4962C17.6358 54.2182 6.70188 50.8475 6.70188 44.9322ZM26.7421 12.6662C32.2347 9.71482 40.7569 16.9026 44.403 20.1379C41.8429 22.69 39.3129 25.5954 36.8959 28.762C32.7514 29.1187 28.7838 29.6913 25.1365 30.4585C23.768 25.3707 21.2555 15.6144 26.7421 12.6662ZM59.8642 32.5606C62.676 32.8899 65.3699 33.3281 67.8994 33.8642C67.1401 36.1237 66.1936 38.4865 65.0788 40.9087C63.4629 38.0624 61.7283 35.2732 59.8642 32.5606ZM47.042 22.6353C48.7784 24.3815 50.5174 26.3315 52.2282 28.447C48.7581 28.2946 45.2824 28.294 41.8124 28.4448C43.5246 26.3488 45.2786 24.4018 47.042 22.6353ZM28.9535 40.9061C27.8572 38.4924 26.9192 36.1192 26.1532 33.8273C28.6676 33.3051 31.349 32.8781 34.1426 32.5541C32.2731 35.2609 30.5415 38.0489 28.9535 40.9061ZM34.2228 57.5598C31.337 57.2608 28.615 56.8555 26.1013 56.3476C26.8794 54.0155 27.838 51.5911 28.9578 49.1254C30.5676 52.0124 32.3257 54.8274 34.2228 57.5598ZM47.1463 67.4761C45.3621 65.6887 43.5822 63.7118 41.8441 61.5856C45.3338 61.7127 48.8304 61.713 52.3198 61.5684C50.6037 63.7335 48.8709 65.7132 47.1463 67.4761ZM65.1147 48.9999C66.2926 51.4924 67.2855 53.9035 68.0742 56.1963C65.5189 56.7377 62.7603 57.1736 59.8536 57.4973C61.7316 54.7332 63.4938 51.9007 65.1147 48.9999ZM55.0702 57.9209C49.7322 58.275 44.361 58.2711 39.0212 57.9499C35.987 53.8355 33.286 49.5084 30.9545 45.0163C33.2748 40.5335 35.9562 36.2149 38.9759 32.1069C44.3195 31.732 49.696 31.7309 55.0396 32.1092C58.0335 36.2168 60.7108 40.5242 63.0849 44.9665C60.739 49.4471 58.0435 53.7744 55.0702 57.9209ZM67.064 12.5623C72.558 15.504 70.1125 25.9517 68.9123 30.4948C65.2563 29.7115 61.2859 29.1288 57.1294 28.7665C54.7077 25.5657 52.1988 22.6552 49.6802 20.1361C53.3729 16.8311 61.6232 9.64937 67.064 12.5623Z" fill="white"/>
</svg>
