<svg width="94" height="90" viewBox="0 0 94 90" fill="none" xmlns="http://www.w3.org/2000/svg">
<g clip-path="url(#clip0_45_532)">
<path d="M80.8781 50.0513C80.9926 50.0484 81.1278 50.0456 81.2658 50.0456C83.7157 50.0456 86.0334 50.5913 88.0896 51.5644L87.9986 51.525C89.8727 52.3997 91.4119 53.6934 92.5253 55.2797L92.5517 55.3191C93.43 56.5453 93.9529 58.0613 93.9529 59.6925C93.9529 59.8106 93.95 59.9288 93.9441 60.0441V60.0272C93.853 61.6556 93.0805 63.0928 91.8937 64.0997L91.8878 64.1053C91.2386 64.7156 90.4543 65.1938 89.5819 65.4975L89.5378 65.5116C89.0482 65.6053 88.779 65.535 88.73 65.3006C88.681 65.0663 88.9014 64.8084 89.3909 64.5272C90.7187 63.7566 91.6793 62.5134 92.0288 61.0481L92.0376 61.0116C92.0464 60.8934 92.0523 60.7556 92.0523 60.615C92.0523 59.7403 91.8349 58.9134 91.4501 58.1822L91.4648 58.2131C90.8274 56.9391 89.8756 55.8928 88.7036 55.1363L88.6742 55.1194C86.9205 54.0394 84.8173 53.3306 82.5554 53.1534L82.5084 53.1506C81.7388 53.0409 80.8516 52.9791 79.9469 52.9791C77.5939 52.9791 75.3468 53.4038 73.2788 54.1772L73.4021 54.135C73.8281 55.0884 74.0954 56.1938 74.1336 57.3525V57.3666C74.0866 59.7431 72.7529 61.8103 70.7701 62.9634L70.7378 62.9803C69.8272 63.5991 68.7873 64.1419 67.6799 64.5638L67.5771 64.5975C66.9044 64.9125 66.1142 65.0953 65.2799 65.0953C65.183 65.0953 65.089 65.0925 64.995 65.0869H65.0097C63.1512 64.7138 62.7106 63.1669 63.6878 60.4463C64.1138 59.2622 64.7101 58.2356 65.465 57.3328L65.4474 57.3525C66.4138 56.1431 67.4743 55.0828 68.6463 54.1434L68.6786 54.1181L68.3908 53.7075C67.8532 52.83 67.3597 51.8091 66.9631 50.7431L66.922 50.6138C66.6283 49.6763 66.3835 48.7866 66.1876 47.9447L66.0408 46.9603L64.572 49.6294C63.2991 51.8794 62.0751 53.8472 60.9001 55.5328L60.4595 56.2359C60.953 57.3834 61.3173 58.7138 61.4818 60.1031L61.4876 60.1734C61.4994 60.3056 61.5053 60.4631 61.5053 60.6206C61.5053 62.7525 60.4066 64.6369 58.7205 65.7872L58.6999 65.8013C57.8951 66.2766 56.9345 66.7688 55.9387 67.2075L55.7624 67.2778C54.7255 67.7081 53.5241 67.9894 52.2639 68.0513H52.2374C52.1405 68.0569 52.0259 68.0625 51.9114 68.0625C51.177 68.0625 50.4808 67.9022 49.8581 67.6181L49.8874 67.6294C49.5144 67.3228 49.2794 66.8728 49.2794 66.3694C49.2794 66.1134 49.3411 65.8688 49.4498 65.6522L49.4439 65.6634C50.6189 64.0856 51.7763 62.7131 53.0071 61.4025L52.9689 61.4447L56.2001 57.51L55.6156 56.2444C55.1456 55.4175 54.6961 54.4416 54.3348 53.4291L54.2937 53.2941C53.9999 52.3566 53.7552 51.4669 53.5593 50.625L53.4124 49.6406L51.9437 53.0156C50.7707 55.6388 49.6936 57.8878 48.7124 59.7628C47.2496 62.5753 46.0256 64.7316 45.0406 66.2316L44.7468 66.6534C43.5738 68.4328 42.4477 69.3225 41.3687 69.3225C40.2897 69.3225 39.5582 68.6663 39.1744 67.3538C38.8924 66.3863 38.7279 65.2753 38.7279 64.1278C38.7279 64.0266 38.7279 63.9253 38.7308 63.8241V63.8381L39.0246 61.8694V62.01C38.2412 63.7894 37.4579 65.4291 36.6746 66.9291C36.1546 67.9022 35.62 68.7319 35.0208 69.5138L35.059 69.4603C34.4538 70.0678 33.6019 70.4447 32.659 70.4447C32.6502 70.4447 32.6443 70.4447 32.6355 70.4447C32.5738 70.4503 32.5033 70.4503 32.4328 70.4503C31.6896 70.4503 31.014 70.1803 30.5029 69.7388L30.5058 69.7416C29.4806 68.7347 28.7198 67.4775 28.3262 66.0741L28.3115 66.015C27.8298 64.7353 27.5536 63.2559 27.5536 61.7147C27.5536 61.515 27.5595 61.3181 27.5683 61.1241V61.1522C27.8004 58.9134 28.2674 56.8631 28.9519 54.9084L28.8902 55.1081L23.6056 58.0613V58.2019C24.3723 59.7263 24.8218 61.515 24.8218 63.405C24.8218 63.7509 24.8071 64.0941 24.7777 64.4316L24.7806 64.3866C24.6249 67.2834 23.6585 69.9356 22.0987 72.1772L22.1369 72.1209C20.5007 74.6072 18.1419 76.5281 15.3395 77.6391L15.2426 77.6728C13.6651 78.3506 11.8204 78.7472 9.88164 78.7472C8.65376 78.7472 7.46114 78.5897 6.33314 78.2916L6.42714 78.3113C5.49301 78.0103 4.72926 77.4141 4.24457 76.6434L4.23576 76.6266C3.55132 75.6759 3.11951 74.5144 3.05195 73.2628V73.2459C3.01964 72.9619 3.00201 72.6328 3.00201 72.2981C3.00201 70.8553 3.3457 69.4884 3.95964 68.2706L3.9332 68.3269C5.61932 65.5734 7.9517 63.3431 10.7364 61.7738L10.8246 61.7288C12.7956 60.4209 15.0604 59.1525 17.4251 58.0472L17.7365 57.915L18.4709 57.4931C17.5896 56.8369 15.974 55.7119 13.624 54.1181C10.4838 52.1044 7.75489 50.0709 5.18164 47.8716L5.25507 47.9334C2.76701 45.8831 0.954573 43.1438 0.140886 40.0247L0.117386 39.9178C0.0410107 39.4847 -0.00305176 38.9869 -0.00305176 38.4806C-0.00305176 36.8944 0.422886 35.4038 1.16901 34.1072L1.14551 34.155C2.79051 30.7688 5.07001 27.9141 7.86651 25.6191L7.90176 25.5909C10.9274 22.8544 14.3525 20.4722 18.0714 18.5428L18.3269 18.4219C21.6493 16.5853 25.5297 14.8781 29.5746 13.5084L30.074 13.3622C33.8311 12.0459 38.1698 11.2753 42.6935 11.2613H42.6994C42.905 11.2556 43.1488 11.25 43.3926 11.25C47.0381 11.25 50.4867 12.0572 53.5534 13.4944L53.4183 13.4353C56.0621 14.5884 58.0419 16.7597 58.8351 19.4147L58.8527 19.4822C59.0965 20.3878 59.2346 21.4284 59.2346 22.5C59.2346 24.2775 58.8498 25.9706 58.1594 27.5063L58.1918 27.4247C56.9345 30.3413 55.1456 32.8247 52.9131 34.8694L52.9043 34.8778C50.6424 37.0238 47.9311 38.7394 44.9201 39.8841L44.7586 39.9375C41.6037 41.2341 37.9406 42.0497 34.0955 42.1847L34.0396 42.1875C33.4756 42.2494 32.8235 42.2831 32.1626 42.2831C30.4236 42.2831 28.7463 42.0441 27.16 41.5969L27.2863 41.6278C25.8675 41.1947 24.6426 40.5225 23.6027 39.6506L23.6144 39.6591C22.8859 39.0909 22.2926 38.3906 21.8696 37.5947L21.8519 37.5581C21.5582 36.8081 21.5337 36.3628 21.7785 36.2222C22.0233 36.0816 22.1947 36.0581 22.2926 36.1519L23.0269 36.855C23.8465 37.5834 24.8247 38.1572 25.9057 38.5228L25.9644 38.5397C27.4508 39.0347 29.1663 39.3216 30.9494 39.3216C31.5222 39.3216 32.0862 39.2934 32.6414 39.2344L32.5738 39.24C37.3267 38.7028 41.6125 37.1503 45.3108 34.8159L45.2021 34.8806C48.3276 33.1003 50.8568 30.6534 52.6369 27.7369L52.6898 27.6413C53.574 26.3981 54.1028 24.8625 54.1028 23.2088C54.1028 22.1934 53.903 21.2203 53.5388 20.3259L53.5593 20.3794C52.4607 18.7172 50.6835 17.5472 48.6096 17.2238L48.5685 17.2181C46.9588 16.8384 45.1081 16.6191 43.2076 16.6191C41.6771 16.6191 40.179 16.7597 38.7308 17.0297L38.8777 17.0072C33.9221 17.8622 29.4924 19.3275 25.4063 21.3413L25.6736 21.2203C13.6338 27.0328 7.41707 32.985 7.02345 39.0769V39.2147C7.02345 41.67 8.03101 43.9003 9.67307 45.5484L9.67014 45.5456C11.5413 47.5369 13.6093 49.2947 15.8683 50.8134L15.9828 50.8866C18.042 52.3603 19.8633 53.8819 21.5582 55.5244L21.5611 55.53L21.8549 55.8113L31.2549 50.8922C32.3271 49.4072 33.6166 48.1528 35.0971 47.1403L35.1441 47.1094C36.3191 46.1644 37.8114 45.5484 39.4476 45.4247L39.474 45.4219C39.5328 45.4163 39.6003 45.4163 39.6708 45.4163C40.7665 45.4163 41.7065 46.0491 42.1119 46.9547L42.1178 46.9716C42.4262 47.6325 42.6054 48.4059 42.6054 49.2188C42.6054 49.4663 42.5878 49.7109 42.5555 49.9528L42.5584 49.9247L42.2734 51.3113L42.7141 51.03C43.0196 50.8078 43.4044 50.6756 43.8215 50.6756C44.0859 50.6756 44.3356 50.7291 44.5618 50.8247L44.55 50.8191C45.114 50.9597 45.5223 51.4434 45.5223 52.0172C45.5223 52.1156 45.5106 52.2113 45.4871 52.3041L45.49 52.2956L45.0494 53.8425C44.1681 57.2156 43.5816 59.6522 43.2898 61.1522C43.143 61.6388 43.0607 62.1984 43.0607 62.7778C43.0607 62.8988 43.0636 63.0169 43.0724 63.135V63.1181C43.1214 63.6806 43.1948 63.9619 43.2928 63.9619C43.3907 63.9619 43.5855 63.6806 43.8773 63.1181L44.3179 62.1338C44.4159 62.1338 44.4159 62.1806 44.3179 62.2744L45.9336 59.04C49.7523 50.9813 51.8076 46.4813 52.0994 45.54L52.9806 42.8709C53.0785 42.6834 53.4702 42.4969 54.1556 42.3113C54.8518 42.1313 55.6479 42.0272 56.4704 42.0272C56.5379 42.0272 56.6055 42.0272 56.6701 42.03H56.6613C58.0322 42.03 58.7176 42.3581 58.7176 43.0144L58.5707 43.7175C58.2417 44.5838 57.9156 45.6666 57.663 46.7747L57.6307 46.9519C57.5719 47.3147 57.5367 47.7309 57.5367 48.1584C57.5367 48.7266 57.5954 49.2806 57.71 49.8178L57.7012 49.7644L57.8481 50.3241C58.1477 51.4969 58.603 52.5263 59.1993 53.4656L59.1699 53.4178C60.343 51.5447 61.469 49.6238 62.5481 47.655C63.3999 46.2966 64.1931 44.7216 64.8305 43.0734L64.8981 42.8766C65.1184 41.8163 65.371 40.9219 65.6794 40.05L65.6324 40.2075C65.7304 39.9263 66.1485 39.7153 66.8868 39.5747C67.5859 39.4397 68.3878 39.3638 69.2074 39.3638H69.3131H69.3073C70.6781 39.3638 71.4095 39.6919 71.5016 40.3481L71.2078 40.9078C70.8583 41.8528 70.5528 42.9891 70.3471 44.1563L70.3295 44.2828C70.3031 44.5556 70.2854 44.8706 70.2854 45.1913C70.2854 45.8634 70.3559 46.5216 70.4881 47.1572L70.4764 47.0925V47.6522C70.8142 48.8784 71.3165 49.9556 71.9745 50.9316L71.9451 50.8866L72.3858 51.8709C74.8386 50.7178 77.7232 50.0428 80.7723 50.0428H80.8869H80.881L80.8781 50.0513ZM17.901 70.4503C19.9426 68.4309 21.2028 65.6747 21.2028 62.6372C21.2028 61.4644 21.0148 60.3338 20.6681 59.2706L20.6916 59.3494L18.3416 60.7556C15.9446 62.0634 13.8708 63.5231 11.9937 65.1825L12.0172 65.1628C10.5925 66.4172 9.54089 68.04 9.02389 69.8709L9.00626 69.9413C8.56564 71.6756 8.78595 72.8006 9.6672 73.3163C10.2048 73.5525 10.8363 73.6903 11.4973 73.6903C12.2199 73.6903 12.9043 73.5272 13.5065 73.2347L13.4801 73.2459C15.2249 72.6384 16.7025 71.6738 17.8775 70.4391L17.8863 70.4306L17.901 70.4503ZM37.5735 57.5016C38.063 56.2828 38.6016 54.8297 39.1891 53.1422C39.9724 50.8922 40.2417 49.5806 39.9969 49.2075C39.7521 48.8344 39.287 48.7875 38.6016 49.0669C37.785 49.4466 37.1005 49.9669 36.5541 50.6053L36.5453 50.6166C35.9343 51.3563 35.3527 52.1831 34.8357 53.0522L34.7828 53.1478C34.1894 54.0788 33.6871 55.1503 33.3376 56.2866L33.3111 56.3822C32.7442 57.8531 32.4152 59.5547 32.4152 61.3266C32.4152 61.5656 32.4211 61.8019 32.4328 62.0381V62.0044C32.5307 63.8775 32.8441 64.8853 33.3728 65.0278C33.9016 65.1703 34.5136 64.4906 35.2088 62.9888C35.8815 61.8272 36.4807 60.4772 36.9272 59.0625L36.9683 58.9106C37.2601 58.2469 37.4599 57.7772 37.5676 57.5016H37.5735ZM53.8648 64.9547C55.9005 64.08 57.334 62.2378 57.5338 60.0581L57.5367 60.0356V59.895L55.9211 61.8638L52.9865 64.9575C52.9424 64.9913 52.9131 65.0419 52.9131 65.0981C52.9131 65.1544 52.9424 65.205 52.9836 65.2388C53.0776 65.3306 53.3713 65.2369 53.8648 64.9575V64.9547ZM66.4931 62.2828C68.7139 61.6753 70.3119 59.7488 70.3119 57.4678C70.3119 57.4313 70.3119 57.3947 70.3119 57.3581V57.3638C70.2825 56.8013 70.1768 56.2725 70.0034 55.7719L70.0152 55.8141C68.8725 56.7872 67.9354 57.9516 67.2569 59.265L67.2246 59.3297C66.3414 61.0153 66.0946 61.9978 66.4843 62.2772L66.4931 62.2828Z" fill="white"/>
</g>
<defs>
<clipPath id="clip0_45_532">
<rect width="94" height="90" fill="white"/>
</clipPath>
</defs>
</svg>
