<svg width="94" height="90" viewBox="0 0 94 90" fill="none" xmlns="http://www.w3.org/2000/svg">
<g clip-path="url(#clip0_45_521)">
<path d="M70.5 59.0625V25.3125H64.625V64.6875H88.125V59.0625H70.5Z" fill="white"/>
<path d="M52.875 25.3125H41.125C39.5669 25.3125 38.0725 25.9051 36.9707 26.96C35.869 28.0149 35.25 29.4457 35.25 30.9375V59.0625C35.25 60.5543 35.869 61.9851 36.9707 63.04C38.0725 64.0949 39.5669 64.6875 41.125 64.6875H44.0625V70.3125C44.0625 71.8043 44.6815 73.2351 45.7832 74.29C46.885 75.3449 48.3794 75.9375 49.9375 75.9375H55.8125V70.3125H49.9375V64.6875H52.875C54.4331 64.6875 55.9275 64.0949 57.0293 63.04C58.131 61.9851 58.75 60.5543 58.75 59.0625V30.9375C58.75 29.4457 58.131 28.0149 57.0293 26.96C55.9275 25.9051 54.4331 25.3125 52.875 25.3125ZM41.125 59.0625V30.9375H52.875V59.0625H41.125Z" fill="white"/>
<path d="M23.5 64.6875H5.875V59.0625H23.5V47.8125H11.75C10.1919 47.8125 8.69752 47.2199 7.59575 46.165C6.49397 45.1101 5.875 43.6793 5.875 42.1875V30.9375C5.875 29.4457 6.49397 28.0149 7.59575 26.96C8.69752 25.9051 10.1919 25.3125 11.75 25.3125H29.375V30.9375H11.75V42.1875H23.5C25.0581 42.1875 26.5525 42.7801 27.6543 43.835C28.756 44.8899 29.375 46.3207 29.375 47.8125V59.0625C29.375 60.5543 28.756 61.9851 27.6543 63.04C26.5525 64.0949 25.0581 64.6875 23.5 64.6875Z" fill="white"/>
</g>
<defs>
<clipPath id="clip0_45_521">
<rect width="94" height="90" fill="white"/>
</clipPath>
</defs>
</svg>
