<svg version="1.1" xmlns="http://www.w3.org/2000/svg" xmlns:xlink="http://www.w3.org/1999/xlink" width="32px" height="32px" viewBox="0,0,256,256"><g fill="#ffffff" fill-rule="nonzero" stroke="none" stroke-width="1" stroke-linecap="butt" stroke-linejoin="miter" stroke-miterlimit="10" stroke-dasharray="" stroke-dashoffset="0" font-family="none" font-weight="none" font-size="none" text-anchor="none" style="mix-blend-mode: normal"><g transform="scale(8,8)"><g><path d="M16,0c-8.837,0 -16,7.163 -16,16c0,8.837 7.163,16 16,16c8.836,0 16,-7.164 16,-16c0,-8.836 -7.163,-16 -16,-16zM16.008,24.004c-1.48265,-0.00072 -2.94315,-0.35993 -4.257,-1.047l-4.988,2.27l1.396,-5.586c-0.91017,-1.46774 -1.39356,-3.15996 -1.396,-4.887c0,-5.096 4.134,-9.233 9.246,-9.233c5.093,0 9.228,4.137 9.228,9.233c-0.001,5.113 -4.135,9.25 -9.229,9.25z"></path><path d="M16.008,7.371c-4.083,0 -7.397,3.299 -7.397,7.383c-0.00206,1.77535 0.63594,3.49194 1.797,4.835l-1.012,2.566l2.251,-1.431c1.26057,0.93624 2.7908,1.43836 4.361,1.431c4.082,0 7.379,-3.316 7.379,-7.4c0.00292,-1.95839 -0.77341,-3.83748 -2.15773,-5.22273c-1.38432,-1.38526 -3.26288,-2.16286 -5.22127,-2.16127zM20.684,17.842c-0.07,0.366 -0.942,1.152 -1.623,1.309c-1.465,0.331 -3.541,-0.838 -4.885,-2.076c-1.344,-1.221 -2.686,-3.194 -2.494,-4.678c0.087,-0.681 0.802,-1.623 1.151,-1.745c0.157,-0.035 0.383,-0.035 0.593,-0.035c0.244,0.017 0.454,0.035 0.524,0.174l0.785,2.042c0.052,0.157 -0.07,0.331 -0.227,0.524c-0.226,0.262 -0.261,0.279 -0.471,0.559c-0.104,0.139 -0.035,0.314 0,0.383c0.227,0.541 0.75,1.152 1.221,1.588c0.489,0.437 1.133,0.908 1.692,1.099c0.035,0 0.244,0.087 0.401,0.052c0.139,-0.017 0.226,-0.122 0.348,-0.279c0.226,-0.279 0.314,-0.384 0.506,-0.646c0.157,-0.192 0.313,-0.262 0.472,-0.175l1.779,0.821c0.14,0.07 0.192,0.244 0.209,0.489c0.036,0.211 0.054,0.438 0.019,0.594z"></path></g></g></g></svg>