<svg width="25" height="25" viewBox="0 0 25 25" fill="none" xmlns="http://www.w3.org/2000/svg">
<g clip-path="url(#clip0_20_23)">
<path d="M24.9241 19.4792L23.5553 13.6615C23.5553 13.6615 23.5585 13.6583 23.5605 13.6562C24.1532 13.0719 24.4803 12.2906 24.4793 11.4552C24.4793 10.0792 23.5793 8.88437 22.2939 8.48125C21.6012 3.61979 17.4553 0 12.5022 0H12.4991C5.65117 0 3.4345 5.16563 1.96783 8.58437C1.36992 9.97812 0.85429 11.1823 0.258457 11.5292C0.0553319 11.6469 -0.0436264 11.8875 0.0178319 12.1146C0.0792903 12.3427 0.28554 12.5 0.520957 12.5C0.750124 12.5 4.372 12.4635 8.3345 10.3729C8.3345 10.3875 8.33346 10.401 8.33346 10.4156C8.33346 10.9906 8.80012 11.4573 9.37512 11.4573C9.95012 11.4573 10.4168 10.9906 10.4168 10.4156C10.4168 10.0073 10.1814 9.65417 9.83971 9.48333C11.4637 8.41146 13.0814 6.95937 14.4866 4.99167C14.6543 4.75625 14.5991 4.43229 14.3658 4.26458C14.1324 4.09896 13.8074 4.15417 13.6397 4.38542C9.84804 9.69375 4.27929 11.0187 1.79596 11.35C2.1845 10.725 2.53242 9.91562 2.92617 8.99687C4.36471 5.63854 6.33658 1.04062 12.4991 1.04062C12.4991 1.04062 12.4991 1.04062 12.5022 1.04062C17.0439 1.04062 20.8272 4.44271 21.3032 8.95521C21.3272 9.18542 21.5001 9.37083 21.7282 9.4125C22.7178 9.59271 23.4366 10.451 23.4376 11.4594C23.4376 12.0104 22.9168 13.5021 21.3647 13.5021L20.9178 13.4958C20.7043 13.5281 20.4939 13.6333 20.4189 13.8437C19.4095 16.7031 16.096 19.7896 12.5033 19.7896H12.5001C9.96575 19.7896 7.23867 18.2125 5.55325 15.7719C5.03971 15.0281 4.20533 14.5833 3.32096 14.5833C2.0595 14.5833 0.94804 15.4781 0.67929 16.7115L0.0709569 19.5094C-0.166543 20.876 0.209499 22.2687 1.10325 23.3312C1.99596 24.3917 3.30221 25 4.68762 25H8.85429C8.99283 25 9.12512 24.9458 9.22304 24.8479C9.32096 24.75 9.37512 24.6177 9.37512 24.4792V20.1802C10.398 20.6021 11.4616 20.8323 12.5001 20.8333C13.5793 20.8333 14.6355 20.5885 15.6251 20.1687V24.4792C15.6251 24.7667 15.8585 25 16.146 25H20.3126C21.6991 25 23.0053 24.3917 23.898 23.3312C24.7908 22.2698 25.1678 20.876 24.9241 19.4792ZM8.33346 19.7917V23.9573H4.68762C3.6095 23.9573 2.59387 23.4844 1.90012 22.6594C1.20533 21.8344 0.912624 20.751 1.09283 19.7094L1.697 16.9333C1.86262 16.175 2.54492 15.625 3.32096 15.625C3.86367 15.625 4.37721 15.901 4.69596 16.3635C5.66054 17.7604 6.93971 18.9031 8.34492 19.6833C8.33762 19.7177 8.33346 19.7542 8.33346 19.7917ZM23.1012 22.6604C22.4064 23.4844 21.3908 23.9573 20.3126 23.9573H16.6668V19.7917C16.6668 19.7458 16.6605 19.7021 16.6491 19.6604C18.7689 18.451 20.4741 16.476 21.2668 14.5427H21.3501C21.8085 14.5479 22.2397 14.4604 22.6324 14.2885L23.9033 19.6875C24.0876 20.751 23.796 21.8344 23.1012 22.6604ZM15.6251 11.4573C15.0501 11.4573 14.5835 10.9906 14.5835 10.4156C14.5835 9.84062 15.0501 9.37396 15.6251 9.37396C16.2001 9.37396 16.6668 9.84062 16.6668 10.4156C16.6668 10.9906 16.2001 11.4573 15.6251 11.4573Z" fill="white"/>
</g>
<defs>
<clipPath id="clip0_20_23">
<rect width="25" height="25" fill="white"/>
</clipPath>
</defs>
</svg>
