<svg version="1.1" xmlns="http://www.w3.org/2000/svg" xmlns:xlink="http://www.w3.org/1999/xlink" width="800px" height="800px" viewBox="0,0,256,256"><g fill="#ffffff" fill-rule="nonzero" stroke="none" stroke-width="1" stroke-linecap="butt" stroke-linejoin="miter" stroke-miterlimit="10" stroke-dasharray="" stroke-dashoffset="0" font-family="none" font-weight="none" font-size="none" text-anchor="none" style="mix-blend-mode: normal"><g transform="translate(71.5,-72.5) scale(0.5,0.5)"><g><path d="M78.9,450.3l83.8,-49.2l-83.8,-49.2z"></path><path d="M113,145c-141.4,0 -256,114.6 -256,256c0,141.4 114.6,256 256,256c141.4,0 256,-114.6 256,-256c0,-141.4 -114.6,-256 -256,-256zM241,446.8v0c0,44.1 -44.1,44.1 -44.1,44.1h-167.8c-44.1,0 -44.1,-44.1 -44.1,-44.1v-91.5c0,-44.1 44.1,-44.1 44.1,-44.1h167.8c44.1,0 44.1,44.1 44.1,44.1z"></path></g></g></g></svg>