<?xml version="1.0" encoding="UTF-8" standalone="no"?><!DOCTYPE svg PUBLIC "-//W3C//DTD SVG 1.1//EN" "http://www.w3.org/Graphics/SVG/1.1/DTD/svg11.dtd"><svg width="100%" height="100%" viewBox="0 0 94 71" version="1.1" xmlns="http://www.w3.org/2000/svg" xmlns:xlink="http://www.w3.org/1999/xlink" xml:space="preserve" xmlns:serif="http://www.serif.com/" style="fill-rule:evenodd;clip-rule:evenodd;stroke-linecap:round;stroke-linejoin:round;stroke-miterlimit:1.5;"><g><path d="M49.12,11.181c-4.903,-15.953 -26.073,-12.773 -25.319,3.862c-15.383,-3.988 -18.777,7.991 -10.641,13.62c-0.851,0.143 -11.184,0.05 -12.341,8.82c-1.049,7.954 9.946,10.989 11.173,11.328c-12.407,21.123 13.112,19.939 20.052,12.717c6.69,12.775 27.755,9.924 23.655,-7.478c1.492,1.216 11.579,9.439 23.964,2.224c6.575,-3.831 0.304,-12.226 -0.322,-13.063c1.042,-0.526 13.758,-4.655 13.076,-13.759c-0.455,-6.073 -10.484,-13.128 -21.818,-8.151c6.802,-11.956 -7.625,-18.783 -21.48,-10.12l0.001,0Z" style="fill:none;stroke:#fff;stroke-width:1.5px;"/><path d="M27.337,27.703c-2.618,-14.446 10.264,-9.113 11.17,-8.044c5.508,6.498 -5.485,8.198 -5.763,15.133" style="fill:none;stroke:#fff;stroke-width:1.5px;"/><path d="M33.514,42.008l0.267,-0.179" style="fill:none;stroke:#fff;stroke-width:1.5px;"/><path d="M46.948,34.919c-2.618,-14.446 10.264,-9.113 11.17,-8.044c5.508,6.498 -5.485,8.198 -5.763,15.133" style="fill:none;stroke:#fff;stroke-width:1.5px;"/><path d="M53.125,49.224l0.267,-0.179" style="fill:none;stroke:#fff;stroke-width:1.5px;"/></g></svg>