<?xml version="1.0" encoding="UTF-8" standalone="no"?><!DOCTYPE svg PUBLIC "-//W3C//DTD SVG 1.1//EN" "http://www.w3.org/Graphics/SVG/1.1/DTD/svg11.dtd"><svg width="100%" height="100%" viewBox="0 0 26 26" version="1.1" xmlns="http://www.w3.org/2000/svg" xmlns:xlink="http://www.w3.org/1999/xlink" xml:space="preserve" xmlns:serif="http://www.serif.com/" style="fill-rule:evenodd;clip-rule:evenodd;stroke-linecap:round;stroke-linejoin:round;stroke-miterlimit:1.5;"><path d="M0.75,12.056c0,0 7.051,-0.661 9.254,-3.305c2.203,-2.644 2.424,-7.932 3.525,-7.712c0.277,0.055 -0.107,-0.677 0,-0c0.318,2.017 0.774,7.163 2.424,8.152c2.203,1.322 2.644,2.864 7.712,3.746c5.068,0.881 -7.712,1.542 -8.152,3.525c-0.441,1.983 -2.424,5.729 -2.864,7.932c-0.441,2.203 -2.424,-7.051 -2.644,-8.593c-0.22,-1.542 -9.254,-3.746 -9.254,-3.746l-0.001,0.001Z" style="fill:none;stroke:#fff;stroke-width:1.5px;"/></svg>