<?xml version="1.0" encoding="UTF-8" standalone="no"?><!DOCTYPE svg PUBLIC "-//W3C//DTD SVG 1.1//EN" "http://www.w3.org/Graphics/SVG/1.1/DTD/svg11.dtd"><svg width="100%" height="100%" viewBox="0 0 86 53" version="1.1" xmlns="http://www.w3.org/2000/svg" xmlns:xlink="http://www.w3.org/1999/xlink" xml:space="preserve" xmlns:serif="http://www.serif.com/" style="fill-rule:evenodd;clip-rule:evenodd;stroke-linecap:round;stroke-linejoin:round;stroke-miterlimit:1.5;"><rect x="9.314" y="0.75" width="69.127" height="39.742" style="fill-opacity:0;stroke:#fff;stroke-width:1.5px;"/><path d="M16.853,15.109c22.439,0 22.248,-0.004 44.664,-0.085" style="fill:none;stroke:#fff;stroke-width:1.5px;"/><path d="M23.935,9.054c16.579,0 16.438,-0.004 33,-0.085" style="fill:none;stroke:#fff;stroke-width:1.5px;"/><path d="M23.795,20.022c8.541,0 8.468,-0.004 17,-0.085" style="fill:none;stroke:#fff;stroke-width:1.5px;"/><path d="M43.995,19.937c7.033,0 6.973,-0.004 14,-0.085" style="fill:none;stroke:#fff;stroke-width:1.5px;"/><path d="M50.658,25.676c7.033,0 6.973,-0.004 14,-0.085" style="fill:none;stroke:#fff;stroke-width:1.5px;"/><path d="M61.214,8.961c4.019,0 3.985,-0.004 8,-0.085" style="fill:none;stroke:#fff;stroke-width:1.5px;"/><path d="M29.561,31.103c15.072,0 14.943,-0.004 30,-0.085" style="fill:none;stroke:#fff;stroke-width:1.5px;"/><path d="M16.933,31.177c1.507,0 1.494,-0.004 3,-0.085" style="fill:none;stroke:#fff;stroke-width:1.5px;"/><path d="M23.519,31.188c1.507,0 1.494,-0.004 3,-0.085" style="fill:none;stroke:#fff;stroke-width:1.5px;"/><path d="M64.658,31.018c1.507,0 1.494,-0.004 3,-0.085" style="fill:none;stroke:#fff;stroke-width:1.5px;"/><path d="M16.933,20.057c1.507,0 1.494,-0.004 3,-0.085" style="fill:none;stroke:#fff;stroke-width:1.5px;"/><path d="M16.795,9.096c1.507,0 1.494,-0.004 3,-0.085" style="fill:none;stroke:#fff;stroke-width:1.5px;"/><path d="M16.795,25.763c7.033,0 6.973,-0.004 14,-0.085" style="fill:none;stroke:#fff;stroke-width:1.5px;"/><path d="M35.435,25.678c5.024,0 4.981,-0.004 10,-0.085" style="fill:none;stroke:#fff;stroke-width:1.5px;"/><path d="M85.243,48.86l0,2.155c0,0.595 -0.483,1.077 -1.077,1.077l-82.338,0c-0.595,0 -1.077,-0.483 -1.077,-1.077l0,-2.155c0,-0.595 0.483,-1.077 1.077,-1.077l82.338,0c0.595,0 1.077,0.483 1.077,1.077Z" style="fill-opacity:0;stroke:#fff;stroke-width:1.5px;"/><path d="M85.243,48.274c-3.498,-3.732 -3.375,-3.757 -6.685,-7.674" style="fill:none;stroke:#fff;stroke-width:1.5px;"/><path d="M0.75,47.783c4.543,-3.493 4.383,-3.516 8.681,-7.182" style="fill:none;stroke:#fff;stroke-width:1.5px;"/></svg>