<?xml version="1.0" encoding="UTF-8" standalone="no"?><!DOCTYPE svg PUBLIC "-//W3C//DTD SVG 1.1//EN" "http://www.w3.org/Graphics/SVG/1.1/DTD/svg11.dtd"><svg width="100%" height="100%" viewBox="0 0 69 105" version="1.1" xmlns="http://www.w3.org/2000/svg" xmlns:xlink="http://www.w3.org/1999/xlink" xml:space="preserve" xmlns:serif="http://www.serif.com/" style="fill-rule:evenodd;clip-rule:evenodd;stroke-linecap:round;stroke-linejoin:round;stroke-miterlimit:1.5;"><path d="M8.462,53.541c8.873,2.991 7.643,5.476 20.797,10.487c6.241,2.377 2.701,6.041 -0.047,5.76c-8.662,-0.886 -15.931,-8.351 -18.336,-9.662" style="fill:none;stroke:#fff;stroke-width:1.5px;"/><path d="M17.055,69.626c1.092,0.359 7.528,1.809 7.795,3.557c0.268,1.752 -2.212,7.632 -2.48,8.269" style="fill:none;stroke:#fff;stroke-width:1.5px;"/><path d="M52.309,37.456c6.36,-0.348 7.861,-4.338 8.354,-5.138" style="fill:none;stroke:#fff;stroke-width:1.5px;"/><path d="M51.427,29.745c3.443,-1.38 3.372,-1.589 7.051,-1.773" style="fill:none;stroke:#fff;stroke-width:1.5px;"/><path d="M58.698,27.762c-2.297,-6.898 4.316,-6.796 6.983,-0.104c0.516,1.295 1.733,3.686 1.781,5.393c0.051,1.788 -4.016,6.349 -6.8,-0.732" style="fill:none;stroke:#fff;stroke-width:1.5px;"/><path d="M15.733,15.863c-1.851,-4.077 -1.378,-4.171 -1.311,-8.611" style="fill:none;stroke:#fff;stroke-width:1.5px;"/><path d="M21.682,13.219c0.41,-3.693 -0.037,-3.648 -1.639,-7.045" style="fill:none;stroke:#fff;stroke-width:1.5px;"/><path d="M20.14,5.948c8.922,-2.857 1.274,-5.014 0.866,-5.07c-6.849,-0.927 -19.135,3.428 -9.858,5.296c2.256,0.454 3.533,-0.391 3.707,-0.309c0.158,0.075 -0.158,0.448 -0.001,0.523" style="fill:none;stroke:#fff;stroke-width:1.5px;"/><path d="M0.75,35.253c5.853,-9.835 17.114,-33.055 41.694,-16.181c17.596,12.079 8.31,31.182 -15.183,78.422" style="fill:none;stroke:#fff;stroke-width:1.5px;"/><path d="M33.139,55.524c-4.896,-2.074 -24.455,-11.84 -24.943,-14.153c-0.354,-1.68 1.113,-2.051 1.318,-2.226c2.63,-2.245 6.505,2.66 24.385,10.327c2.308,0.99 3.393,2.552 3.345,3.849c-0.053,1.418 -1.46,2.518 -4.105,2.203Z" style="fill:none;stroke:#fff;stroke-width:1.5px;"/><path d="M14.631,45.389c0.989,-1.004 1.978,-2.008 2.967,-3.011" style="fill:none;stroke:#fff;stroke-width:1.5px;"/><path d="M21.462,49.355c1.019,-1.045 2.038,-2.09 3.058,-3.135" style="fill:none;stroke:#fff;stroke-width:1.5px;"/><path d="M28.733,53.321c1.057,-1.302 2.115,-2.604 3.172,-3.906" style="fill:none;stroke:#fff;stroke-width:1.5px;"/><path d="M39.529,74.253c5.04,6.547 3.898,12.281 1.419,24.638c-5.252,-2.826 -4.882,-3.342 -10.091,-6.32" style="fill:none;stroke:#fff;stroke-width:1.5px;"/><path d="M40.851,98.93c-0.677,0.528 -8.595,6.399 -10.525,4.447c-1.59,-1.609 2.633,-3.842 5.752,-7.263" style="fill:none;stroke:#fff;stroke-width:1.5px;"/><circle cx="20.25" cy="29.194" r="3.415" style="fill:#ebebeb;fill-opacity:0;stroke:#fff;stroke-width:1.5px;"/><circle cx="20.25" cy="29.194" r="5.729" style="fill:#ebebeb;fill-opacity:0;stroke:#fff;stroke-width:1.5px;"/><circle cx="38.831" cy="40.651" r="5.729" style="fill:#ebebeb;fill-opacity:0;stroke:#fff;stroke-width:1.5px;"/><circle cx="38.831" cy="40.651" r="3.415" style="fill:#ebebeb;fill-opacity:0;stroke:#fff;stroke-width:1.5px;"/></svg>