<?xml version="1.0" encoding="UTF-8" standalone="no"?><!DOCTYPE svg PUBLIC "-//W3C//DTD SVG 1.1//EN" "http://www.w3.org/Graphics/SVG/1.1/DTD/svg11.dtd"><svg width="100%" height="100%" viewBox="0 0 32 18" version="1.1" xmlns="http://www.w3.org/2000/svg" xmlns:xlink="http://www.w3.org/1999/xlink" xml:space="preserve" xmlns:serif="http://www.serif.com/" style="fill-rule:evenodd;clip-rule:evenodd;stroke-linecap:round;stroke-linejoin:round;stroke-miterlimit:1.5;"><path d="M8.544,12.44c-4.481,0.37 -7.598,0.07 -7.785,-0.915c-0.187,-0.985 2.602,-2.407 6.907,-3.706c-0.033,0.293 -0.049,0.59 -0.049,0.891c0,1.347 0.335,2.617 0.927,3.73Zm14.066,-7.46c4.481,-0.37 7.598,-0.07 7.785,0.915c0.187,0.985 -2.602,2.407 -6.907,3.706c0.033,-0.293 0.049,-0.59 0.049,-0.891c0,-1.347 -0.335,-2.617 -0.927,-3.73Z" style="fill-opacity:0;stroke:#fff;stroke-width:1.5px;"/><path d="M23.488,9.601c-0.444,3.975 -3.819,7.069 -7.911,7.069c-3.046,0 -5.695,-1.715 -7.033,-4.231c2.238,-0.185 4.817,-0.537 7.541,-1.054c2.724,-0.517 5.253,-1.136 7.403,-1.784Z" style="fill-opacity:0;stroke:#fff;stroke-width:1.5px;"/><path d="M7.666,7.819c0.444,-3.975 3.819,-7.069 7.911,-7.069c3.046,0 5.695,1.715 7.033,4.231c0.592,1.113 0.927,2.382 0.927,3.73c0,0.301 -0.017,0.598 -0.049,0.891c-2.15,0.649 -4.678,1.267 -7.403,1.784c-2.724,0.517 -5.303,0.87 -7.541,1.054c-0.592,-1.113 -0.927,-2.382 -0.927,-3.73c0,-0.301 0.017,-0.598 0.049,-0.891Z" style="fill-opacity:0;stroke:#fff;stroke-width:1.5px;"/></svg>